<?xml version="1.0" encoding="utf-8"?>
<!-- Generator: Adobe Illustrator 16.0.0, SVG Export Plug-In . SVG Version: 6.00 Build 0)  -->
<!DOCTYPE svg PUBLIC "-//W3C//DTD SVG 1.1//EN" "http://www.w3.org/Graphics/SVG/1.1/DTD/svg11.dtd">
<svg version="1.1" xmlns="http://www.w3.org/2000/svg" xmlns:xlink="http://www.w3.org/1999/xlink" x="0px" y="0px" width="500px"
	 height="500px" viewBox="0 0 500 500" enable-background="new 0 0 500 500" xml:space="preserve">
<g id="BACKGROUND">
</g>
<g id="OBJECTS">
	<g>
		<g>
			<polygon fill="#E0E0E0" points="227.893,396.367 223.792,416.07 276.208,416.07 272.107,396.367 			"/>
			<path fill="#424242" d="M365.103,372.091V255.184c0-3.48-2.822-6.303-6.303-6.303H141.201c-3.481,0-6.303,2.822-6.303,6.303
				v116.907H365.103z"/>
			<rect x="141.475" y="255.458" fill="#FF8A65" width="217.051" height="110.056"/>
			<rect x="141.475" y="255.458" fill="#FAFAFA" width="217.051" height="3.897"/>
			<path fill="#F5F5F5" d="M285.941,414.313h-71.882c-1.941,0-3.515,1.573-3.515,3.515h78.912
				C289.456,415.887,287.882,414.313,285.941,414.313z"/>
			<rect x="141.475" y="255.458" fill="#E0E0E0" width="12.003" height="3.897"/>
			<path fill="#F5F5F5" d="M134.897,372.091v17.972c0,3.481,2.82,6.308,6.302,6.308h217.6c3.481,0,6.302-2.826,6.302-6.308v-17.972
				H134.897z"/>
			<circle fill="#E0E0E0" cx="249.999" cy="384.23" r="4.102"/>
			<polygon fill="#BDBDBD" points="227.893,396.367 227.251,399.451 274.157,406.219 272.107,396.367 			"/>
			<rect x="350.667" y="263.916" fill="#FF7043" width="5.396" height="5.396"/>
			<rect x="350.667" y="272.507" fill="#FF7043" width="5.396" height="5.396"/>
			<rect x="350.667" y="281.098" fill="#FF7043" width="5.396" height="5.396"/>
			<rect x="350.667" y="289.688" fill="#FF7043" width="5.396" height="5.396"/>
			<rect x="216.497" y="358.945" fill="#FF7043" width="67.004" height="6.568"/>
		</g>
		<g>
			<path fill="#EEEEEE" d="M144.894,292.356v57.105c0,1.255,1.017,2.271,2.271,2.271h87.745c1.254,0,2.271-1.017,2.271-2.271
				v-57.105H144.894z"/>
			<path fill="#E0E0E0" d="M234.91,287.553h-87.745c-1.254,0-2.271,1.018-2.271,2.271v2.532h92.287v-2.532
				C237.181,288.57,236.164,287.553,234.91,287.553z"/>
			<circle fill="#D32F2F" cx="148.219" cy="289.955" r="0.776"/>
			<circle fill="#BDBDBD" cx="150.811" cy="289.955" r="0.775"/>
			<circle fill="#BDBDBD" cx="153.401" cy="289.955" r="0.775"/>
		</g>
		<g>
			<g>
				<path fill="#757575" d="M187.752,268.621v84.92c0,1.255,1.017,2.271,2.271,2.271h152.546c1.255,0,2.271-1.017,2.271-2.271
					v-84.92H187.752z"/>
				<path fill="#616161" d="M342.569,263.817H190.023c-1.254,0-2.271,1.018-2.271,2.271v2.532h157.089v-2.532
					C344.841,264.835,343.824,263.817,342.569,263.817z"/>
				<rect x="187.752" y="268.621" fill="#424242" width="157.089" height="8.14"/>
				<rect x="315.035" y="270.753" fill="#616161" width="24.386" height="3.875"/>
				<path fill="#616161" d="M335.48,276.761v79.052h7.085c1.257,0,2.275-1.019,2.275-2.275v-76.776H335.48z"/>
				<rect x="338.465" y="279.745" fill="#BDBDBD" width="3.391" height="3.392"/>
				<rect x="338.465" y="287.505" fill="#BDBDBD" width="3.391" height="3.391"/>
				<rect x="338.465" y="295.265" fill="#BDBDBD" width="3.391" height="3.391"/>
				<rect x="338.465" y="303.023" fill="#BDBDBD" width="3.391" height="3.391"/>
				<rect x="338.465" y="310.783" fill="#BDBDBD" width="3.391" height="3.391"/>
				<rect x="338.465" y="318.542" fill="#BDBDBD" width="3.391" height="3.392"/>
				<rect x="338.465" y="326.302" fill="#BDBDBD" width="3.391" height="3.391"/>
			</g>
			<rect x="234.368" y="283.795" fill="#FFFFFF" width="63.856" height="63.856"/>
			<g>
				<rect x="290.11" y="295.265" fill="#616161" width="28.455" height="24.195"/>
				<rect x="292.975" y="298.128" fill="#BDBDBD" width="4.368" height="4.368"/>
				<rect x="302.153" y="298.128" fill="#BDBDBD" width="4.369" height="4.368"/>
				<rect x="311.333" y="298.128" fill="#BDBDBD" width="4.369" height="4.368"/>
				<rect x="292.975" y="306.996" fill="#BDBDBD" width="4.368" height="4.368"/>
				<rect x="302.153" y="306.996" fill="#BDBDBD" width="4.369" height="4.368"/>
				<rect x="311.333" y="306.996" fill="#BDBDBD" width="4.369" height="4.368"/>
				<rect x="290.11" y="290.896" fill="#424242" width="28.455" height="4.369"/>
			</g>
			<circle fill="#EF5350" cx="191.813" cy="266.22" r="0.776"/>
			<circle fill="#424242" cx="194.404" cy="266.22" r="0.775"/>
			<circle fill="#424242" cx="196.995" cy="266.22" r="0.776"/>
		</g>
		<g>
			<path fill="#FFFFFF" d="M158.726,277.24v39.729c0,1.255,1.017,2.271,2.271,2.271h55.5c1.254,0,2.271-1.017,2.271-2.271V277.24
				H158.726z"/>
			<path fill="#F5F5F5" d="M216.497,272.438h-55.5c-1.254,0-2.271,1.017-2.271,2.271v2.532h60.042v-2.532
				C218.768,273.454,217.751,272.438,216.497,272.438z"/>
			<circle fill="#EF5350" cx="162.051" cy="274.839" r="0.775"/>
			<circle fill="#E0E0E0" cx="164.642" cy="274.839" r="0.776"/>
			<circle fill="#E0E0E0" cx="167.233" cy="274.839" r="0.776"/>
			<rect x="164.638" y="283.152" fill="#F48FB1" width="48.219" height="30.177"/>
		</g>
	</g>
</g>
<g id="DESIGNED_BY_FREEPIK">
</g>
</svg>
