<?xml version="1.0" encoding="utf-8"?>
<!-- Generator: Adobe Illustrator 16.0.0, SVG Export Plug-In . SVG Version: 6.00 Build 0)  -->
<!DOCTYPE svg PUBLIC "-//W3C//DTD SVG 1.1//EN" "http://www.w3.org/Graphics/SVG/1.1/DTD/svg11.dtd">
<svg version="1.1" xmlns="http://www.w3.org/2000/svg" xmlns:xlink="http://www.w3.org/1999/xlink" x="0px" y="0px" width="800px"
	 height="800px" viewBox="0 0 800 800" enable-background="new 0 0 800 800" xml:space="preserve">
<g id="BACKGROUND">
</g>
<g id="OBJECTS">
	<g>
		<g>
			<g>
				<polyline fill="#747678" points="530.478,556.429 462.032,595.944 462.032,603.101 530.478,563.619 530.478,556.429 				"/>
				<polyline fill="#8B9092" points="458.686,594.022 458.699,601.132 462.032,603.101 462.032,595.944 458.686,594.022 				"/>
				<polyline fill="#ADAFB0" points="527.129,554.498 527.129,554.498 458.686,594.022 462.032,595.944 530.478,556.429 
					527.129,554.498 				"/>
			</g>
			<g>
				<polyline fill="#747678" points="518.028,549.177 449.583,588.692 449.583,595.849 518.028,556.367 518.028,549.177 				"/>
				<polyline fill="#8B9092" points="446.236,586.771 446.25,593.88 449.583,595.849 449.583,588.692 446.236,586.771 				"/>
				<polyline fill="#ADAFB0" points="514.68,547.246 514.68,547.246 446.236,586.771 446.236,586.771 449.583,588.692 
					518.028,549.177 514.68,547.246 				"/>
			</g>
			<g>
				<polyline fill="#747678" points="505.694,542.094 437.25,581.609 437.25,588.766 505.694,549.284 505.694,542.094 				"/>
				<polyline fill="#8B9092" points="433.902,579.688 433.917,586.797 437.25,588.766 437.25,581.609 433.902,579.688 				"/>
				<polyline fill="#ADAFB0" points="502.347,540.163 433.902,579.688 437.25,581.609 505.694,542.094 502.347,540.163 				"/>
			</g>
			<path fill="#A0A7AD" d="M625.995,558.81L248.409,340.778c-8.663-5.002-13.999-14.245-13.999-24.248V76.693
				c0-10.771,11.655-17.508,20.988-12.131l377.574,217.523c8.676,4.998,14.023,14.25,14.023,24.262v240.338
				C646.996,557.463,635.329,564.198,625.995,558.81"/>
			<path fill="#A0A7AD" d="M386.658,430.441l0.117,36.244c0.028,8.603-4.551,16.563-12.001,20.863l-31.519,18.192l87.122,50.297
				l31.609-18.171c7.452-4.28,12.047-12.219,12.047-20.813V480.66L386.658,430.441"/>
			<polygon fill="#A0A7AD" points="631.316,563.284 639.541,559.061 632.456,549.174 			"/>
			<polygon fill="#A0A7AD" points="241.227,64.677 232.842,68.987 237.027,68.95 			"/>
			<path fill="#CACACC" d="M617.156,563.379L239.57,345.348c-8.663-5.001-13.999-14.245-13.999-24.248V81.263
				c0-10.771,11.655-17.508,20.988-12.131l377.574,217.523c8.676,4.998,14.023,14.249,14.023,24.262v240.337
				C638.157,562.033,626.489,568.769,617.156,563.379"/>
			<polyline fill="#E5F4F7" points="244.24,89.779 244.24,319.231 617.949,535.002 617.949,304.684 244.24,89.779 			"/>
			<polyline fill="#F37C54" points="262.988,121.719 262.974,150.455 592.699,340.809 592.722,312.126 262.988,121.719 			"/>
			<polyline fill="#5CD2D2" points="263.083,164.925 263.057,251.218 331.392,290.58 331.468,204.438 263.083,164.925 			"/>
			<polyline fill="#CF3A52" points="343.798,218.721 343.689,304.754 412.241,344.455 412.265,258.229 343.798,218.721 			"/>
			<path fill="#E3516E" d="M358.773,298.493l-0.002,0.001l6.15,3.551v-0.005L358.773,298.493 M343.798,218.721l-0.109,86.033
				l15.061,8.722l0.021-14.981l-0.289-0.166l-1.634,0.758l-0.348-0.725l0.997-0.6l6.198-3.608l1.24,0.716l4.406,2.546l0,0
				l0.831,0.48l1.031,0.596l8.213,4.747l4.126,2.382v0.002l0.003,0.002l5.11,5.353c0.388,0.406,0.915,0.619,1.447,0.619
				c0.341,0,0.685-0.087,0.997-0.267l4.813-2.77l6.292,3.552l-11.236,6.513c-0.312,0.181-0.658,0.27-1.003,0.27
				c-0.45,0-0.897-0.152-1.262-0.449l-5.158-4.194l0,0l5.158,4.194c0.365,0.296,0.812,0.448,1.262,0.448
				c0.345,0,0.691-0.089,1.002-0.27l11.236-6.514v4.154l-11.243,6.507c-0.311,0.18-0.657,0.269-1.001,0.269
				c-0.447,0-0.891-0.149-1.255-0.442l-5.16-4.153v9.39l28.695,16.618l0.023-86.226L343.798,218.721"/>
			<polyline fill="#4F9CD0" points="437.112,265.364 437.087,351.657 505.592,391.116 505.837,305 437.112,265.364 			"/>
			<polyline fill="#F2C06B" points="524.279,315.697 524.271,466.6 592.727,506.124 593.004,355.333 524.279,315.697 			"/>
			<polyline fill="#8F959B" points="467.808,477.14 467.808,484.295 473.968,480.697 467.808,477.14 			"/>
			<polyline fill="#B5B5B7" points="467.808,477.07 467.808,477.14 473.968,480.697 474.032,480.66 467.808,477.07 			"/>
			<path fill="#A0A7AD" d="M428.782,441.765c0,3.566-2.892,4.792-6.458,2.737s-6.458-6.612-6.458-10.18
				c0-3.566,2.892-4.792,6.458-2.737C425.891,433.641,428.782,438.197,428.782,441.765z"/>
			<polyline fill="#F37C54" points="262.923,121.705 266.129,119.849 595.846,310.33 595.782,339.101 592.731,340.875 
				592.717,312.118 262.923,121.705 			"/>
			<polyline fill="#C76746" points="595.846,310.33 592.717,312.118 592.731,340.875 595.782,339.017 595.846,310.33 			"/>
			<polygon fill="#A0A7AD" points="248.212,92.063 248.212,321.525 244.24,319.231 244.24,89.779 			"/>
			<polyline fill="#A0A7AD" points="248.215,316.988 617.949,530.424 617.949,534.996 244.24,319.268 248.215,316.988 			"/>
			<polyline fill="#5CD2D2" points="262.912,164.811 266.158,162.976 334.595,202.517 334.637,288.684 331.392,290.58 
				331.468,204.438 262.912,164.811 			"/>
			<polyline fill="#4BAEAF" points="334.595,202.517 331.468,204.438 331.392,290.564 334.637,288.684 334.595,202.517 			"/>
			<polyline fill="#9FE5E5" points="266.158,162.976 262.912,164.811 331.468,204.438 334.595,202.517 266.158,162.976 			"/>
			<polyline fill="#20AAE0" points="343.798,218.721 353.243,213.268 421.651,252.811 421.591,339.084 412.241,344.455 
				412.265,258.229 343.798,218.721 			"/>
			<polyline fill="#CF3A52" points="343.798,218.721 353.243,213.268 421.651,252.811 412.265,258.229 343.798,218.721 			"/>
			<polyline fill="#F6678A" points="353.243,213.268 343.798,218.721 412.265,258.229 421.651,252.811 353.243,213.268 			"/>
			<polygon fill="#CF3A52" points="421.651,252.811 421.591,339.084 412.241,344.455 412.265,258.229 			"/>
			<polyline fill="#4F9CD0" points="437.112,265.363 440.357,263.527 508.795,303.069 508.837,389.235 505.592,391.116 
				505.836,304.999 437.112,265.363 			"/>
			<polyline fill="#4181AD" points="508.795,303.069 505.836,304.999 505.592,391.116 508.837,389.235 508.795,303.069 			"/>
			<polyline fill="#97C5E4" points="440.357,263.527 437.112,265.363 505.836,304.999 508.795,303.069 440.357,263.527 			"/>
			<polyline fill="#F2C06B" points="524.271,315.693 527.517,313.858 595.954,353.399 595.979,504.25 592.734,506.13 
				592.665,355.139 524.271,315.693 			"/>
			<polyline fill="#E5F4F7" points="595.954,353.399 595.954,353.399 595.979,504.25 595.979,504.246 595.954,353.399 			"/>
			<polyline fill="#D1D3D4" points="595.954,353.399 595.954,353.399 595.979,504.25 595.979,504.246 595.954,353.399 			"/>
			<polyline fill="#C69F59" points="595.954,353.399 592.665,355.139 592.734,506.127 595.979,504.246 595.954,353.399 			"/>
			<polyline fill="#F8B29B" points="266.128,119.85 262.923,121.705 592.717,312.118 595.846,310.33 266.128,119.85 			"/>
			<polyline fill="#F8DAA9" points="527.517,313.858 524.271,315.693 592.665,355.139 595.954,353.399 527.517,313.858 			"/>
			<polyline fill="#E5F4F7" points="262.908,265.415 262.905,272.602 331.358,312.118 331.358,304.934 262.908,265.415 			"/>
			<polyline fill="#909193" points="262.908,265.415 262.905,272.602 331.358,312.118 331.358,304.934 262.908,265.415 			"/>
			<polyline fill="#E5F4F7" points="334.681,303 331.358,304.934 331.358,312.118 334.614,310.214 334.681,303 			"/>
			<polyline fill="#758082" points="334.681,303 331.358,304.934 331.358,312.118 334.614,310.214 334.681,303 			"/>
			<polyline fill="#E5F4F7" points="266.231,263.48 262.908,265.415 331.358,304.934 334.681,303 266.231,263.48 			"/>
			<polyline fill="#ADB5B6" points="266.231,263.48 262.908,265.415 331.358,304.934 334.681,303 266.231,263.48 			"/>
			<polyline fill="#E5F4F7" points="262.908,279.79 262.905,286.977 331.358,326.493 331.358,319.309 262.908,279.79 			"/>
			<polyline fill="#909193" points="262.908,279.79 262.905,286.977 331.358,326.493 331.358,319.309 262.908,279.79 			"/>
			<polyline fill="#E5F4F7" points="334.681,317.375 331.358,319.309 331.358,326.493 334.614,324.589 334.681,317.375 			"/>
			<polyline fill="#758082" points="334.681,317.375 331.358,319.309 331.358,326.493 334.614,324.589 334.681,317.375 			"/>
			<polyline fill="#E5F4F7" points="266.231,277.856 262.908,279.79 331.358,319.309 334.681,317.375 266.231,277.856 			"/>
			<polyline fill="#ADB5B6" points="266.231,277.856 262.908,279.79 331.358,319.309 334.681,317.375 266.231,277.856 			"/>
			<polyline fill="#E5F4F7" points="262.908,294.152 262.905,301.339 331.358,340.855 331.358,333.671 262.908,294.152 			"/>
			<polyline fill="#909193" points="262.908,294.152 262.905,301.339 331.358,340.855 331.358,333.671 262.908,294.152 			"/>
			<polyline fill="#E5F4F7" points="334.681,331.737 331.358,333.671 331.358,340.855 334.614,338.951 334.681,331.737 			"/>
			<polyline fill="#758082" points="334.681,331.737 331.358,333.671 331.358,340.855 334.614,338.951 334.681,331.737 			"/>
			<polyline fill="#E5F4F7" points="266.231,292.218 262.908,294.152 331.358,333.671 334.681,331.737 266.231,292.218 			"/>
			<polyline fill="#ADB5B6" points="266.231,292.218 262.908,294.152 331.358,333.671 334.681,331.737 266.231,292.218 			"/>
			<polyline fill="#E5F4F7" points="262.908,308.523 262.905,315.71 331.358,355.227 331.358,348.042 262.908,308.523 			"/>
			<polyline fill="#909193" points="262.908,308.523 262.905,315.71 331.358,355.227 331.358,348.042 262.908,308.523 			"/>
			<polyline fill="#E5F4F7" points="334.681,346.108 331.358,348.042 331.358,355.227 334.614,353.322 334.681,346.108 			"/>
			<polyline fill="#758082" points="334.681,346.108 331.358,348.042 331.358,355.227 334.614,353.322 334.681,346.108 			"/>
			<polyline fill="#E5F4F7" points="266.231,306.589 262.908,308.523 331.358,348.042 334.681,346.108 266.231,306.589 			"/>
			<polyline fill="#ADB5B6" points="266.231,306.589 262.908,308.523 331.358,348.042 334.681,346.108 266.231,306.589 			"/>
			<path fill="#E5F4F7" d="M383.546,335.071v7.187l15.992,9.232l2.417-1.423l6.25,3.633l-0.55,2.475l10.812,6.241v-7.184
				L383.546,335.071 M350.018,315.713l-0.003,7.187l8.715,5.031l0.01-7.182L350.018,315.713"/>
			<path fill="#909193" d="M383.546,335.071v7.187l15.992,9.232l2.417-1.423l6.25,3.633l-0.55,2.475l10.812,6.241v-7.184
				L383.546,335.071 M350.018,315.713l-0.003,7.187l8.715,5.031l0.01-7.182L350.018,315.713"/>
			<polyline fill="#E5F4F7" points="421.789,353.298 418.467,355.232 418.467,362.416 421.723,360.512 421.789,353.298 			"/>
			<polyline fill="#758082" points="421.789,353.298 418.467,355.232 418.467,362.416 421.723,360.512 421.789,353.298 			"/>
			<path fill="#E5F4F7" d="M383.546,331.218v3.853l34.92,20.161l3.322-1.934L383.546,331.218 M353.34,313.779l-3.322,1.934
				l8.722,5.036l0.005-3.849L353.34,313.779"/>
			<path fill="#ADB5B6" d="M383.546,331.218v3.853l34.92,20.161l3.322-1.934L383.546,331.218 M353.34,313.779l-3.322,1.934
				l8.722,5.036l0.005-3.849L353.34,313.779"/>
			<path fill="#E5F4F7" d="M406.239,362.547l-1.414,6.369l13.642,7.875v-7.184L406.239,362.547 M377.382,345.887v6.467l-9.752-5.621
				l-0.14,0.63l32.578,18.807l1.417-6.368L377.382,345.887 M350.018,330.088l-0.003,7.187l6.465,3.732l1.416-6.371L350.018,330.088"
				/>
			<path fill="#909193" d="M406.239,362.547l-1.414,6.369l13.642,7.875v-7.184L406.239,362.547 M377.382,345.887v6.467l-9.752-5.621
				l-0.14,0.63l32.578,18.807l1.417-6.368L377.382,345.887 M350.018,330.088l-0.003,7.187l6.465,3.732l1.416-6.371L350.018,330.088"
				/>
			<polyline fill="#E5F4F7" points="421.789,367.672 418.467,369.607 418.467,376.791 421.723,374.887 421.789,367.672 			"/>
			<polyline fill="#758082" points="421.789,367.672 418.467,369.607 418.467,376.791 421.723,374.887 421.789,367.672 			"/>
			<path fill="#E5F4F7" d="M406.998,359.133l-0.759,3.415l12.228,7.06l3.322-1.935L406.998,359.133 M377.382,345.183v0.704
				l24.102,13.915l0.55-2.47l-6.25-3.633l0.892-0.525l-13.13-7.581v3.142l-0.003-0.002v0L377.382,345.183 M353.34,328.154
				l-3.322,1.934l7.878,4.548l0.562-2.528l0.266-0.157l0.001-0.689L353.34,328.154"/>
			<path fill="#ADB5B6" d="M406.998,359.133l-0.759,3.415l12.228,7.06l3.322-1.935L406.998,359.133 M377.382,345.183v0.704
				l24.102,13.915l0.55-2.47l-6.25-3.633l0.892-0.525l-13.13-7.581v3.142l-0.003-0.002v0L377.382,345.183 M353.34,328.154
				l-3.322,1.934l7.878,4.548l0.562-2.528l0.266-0.157l0.001-0.689L353.34,328.154"/>
			<path fill="#E5F4F7" d="M397.362,378.325l-0.559,0.323l0.431,0.249L397.362,378.325 M403.412,375.277l-1.415,6.369l16.47,9.508
				v-7.184L403.412,375.277 M350.018,344.45l-0.003,7.187l3.635,2.099l1.416-6.371L350.018,344.45"/>
			<path fill="#909193" d="M397.362,378.325l-0.559,0.323l0.431,0.249L397.362,378.325 M403.412,375.277l-1.415,6.369l16.47,9.508
				v-7.184L403.412,375.277 M350.018,344.45l-0.003,7.187l3.635,2.099l1.416-6.371L350.018,344.45"/>
			<polyline fill="#E5F4F7" points="421.789,382.035 418.467,383.969 418.467,391.153 421.723,389.249 421.789,382.035 			"/>
			<polyline fill="#758082" points="421.789,382.035 418.467,383.969 418.467,391.153 421.723,389.249 421.789,382.035 			"/>
			<path fill="#E5F4F7" d="M404.17,371.863l-0.758,3.414l15.055,8.692l3.322-1.934L404.17,371.863 M366.835,350.308l-0.198,0.891
				l0.015,0.009l0.005-0.003l32.569,18.741l0.185-0.831L366.835,350.308 M353.34,342.516l-3.322,1.934l5.048,2.915l0.759-3.415
				L353.34,342.516"/>
			<path fill="#ADB5B6" d="M404.17,371.863l-0.758,3.414l15.055,8.692l3.322-1.934L404.17,371.863 M366.835,350.308l-0.198,0.891
				l0.015,0.009l0.005-0.003l32.569,18.741l0.185-0.831L366.835,350.308 M353.34,342.516l-3.322,1.934l5.048,2.915l0.759-3.415
				L353.34,342.516"/>
			<path fill="#E5F4F7" d="M400.582,388.015l-1.415,6.369l19.299,11.141v-7.185L400.582,388.015 M363.248,366.459l-1.415,6.371
				l32.567,18.801l1.417-6.367L363.248,366.459 M350.018,358.821l-0.003,7.187l0.804,0.464l1.417-6.371L350.018,358.821"/>
			<path fill="#909193" d="M400.582,388.015l-1.415,6.369l19.299,11.141v-7.185L400.582,388.015 M363.248,366.459l-1.415,6.371
				l32.567,18.801l1.417-6.367L363.248,366.459 M350.018,358.821l-0.003,7.187l0.804,0.464l1.417-6.371L350.018,358.821"/>
			<polyline fill="#E5F4F7" points="421.789,396.406 418.467,398.34 418.467,405.524 421.723,403.62 421.789,396.406 			"/>
			<polyline fill="#758082" points="421.789,396.406 418.467,398.34 418.467,405.524 421.723,403.62 421.789,396.406 			"/>
			<path fill="#E5F4F7" d="M401.341,384.6l-0.759,3.415l17.885,10.325l3.322-1.934L401.341,384.6 M363.821,363.877l-0.574,2.582
				l32.57,18.804l0.76-3.414l-2.659-1.535l-0.811,0.469l-0.004-0.939l0.004,0.939L363.821,363.877 M352.891,357.148l-2.874,1.673
				l2.217,1.28L352.891,357.148"/>
			<path fill="#ADB5B6" d="M401.341,384.6l-0.759,3.415l17.885,10.325l3.322-1.934L401.341,384.6 M363.821,363.877l-0.574,2.582
				l32.57,18.804l0.76-3.414l-2.659-1.535l-0.811,0.469l-0.004-0.939l0.004,0.939L363.821,363.877 M352.891,357.148l-2.874,1.673
				l2.217,1.28L352.891,357.148"/>
			<polyline fill="#E5F4F7" points="437.156,366.055 437.153,373.242 505.606,412.759 505.606,405.574 437.156,366.055 			"/>
			<polyline fill="#909193" points="437.156,366.055 437.153,373.242 505.606,412.759 505.606,405.574 437.156,366.055 			"/>
			<polyline fill="#E5F4F7" points="508.929,403.64 505.606,405.574 505.606,412.759 508.862,410.854 508.929,403.64 			"/>
			<polyline fill="#758082" points="508.929,403.64 505.606,405.574 505.606,412.759 508.862,410.854 508.929,403.64 			"/>
			<polyline fill="#E5F4F7" points="440.479,364.121 437.156,366.055 505.606,405.574 508.929,403.64 440.479,364.121 			"/>
			<polyline fill="#ADB5B6" points="440.479,364.121 437.156,366.055 505.606,405.574 508.929,403.64 440.479,364.121 			"/>
			<polyline fill="#E5F4F7" points="437.156,380.43 437.153,387.617 505.606,427.134 505.606,419.949 437.156,380.43 			"/>
			<polyline fill="#909193" points="437.156,380.43 437.153,387.617 505.606,427.134 505.606,419.949 437.156,380.43 			"/>
			<polyline fill="#E5F4F7" points="508.929,418.015 505.606,419.949 505.606,427.134 508.862,425.229 508.929,418.015 			"/>
			<polyline fill="#758082" points="508.929,418.015 505.606,419.949 505.606,427.134 508.862,425.229 508.929,418.015 			"/>
			<polyline fill="#E5F4F7" points="440.479,378.496 437.156,380.43 505.606,419.949 508.929,418.015 440.479,378.496 			"/>
			<polyline fill="#ADB5B6" points="440.479,378.496 437.156,380.43 505.606,419.949 508.929,418.015 440.479,378.496 			"/>
			<polyline fill="#E5F4F7" points="437.156,394.792 437.153,401.979 505.606,441.496 505.606,434.312 437.156,394.792 			"/>
			<polyline fill="#909193" points="437.156,394.792 437.153,401.979 505.606,441.496 505.606,434.312 437.156,394.792 			"/>
			<polyline fill="#E5F4F7" points="508.929,432.377 505.606,434.312 505.606,441.496 508.862,439.592 508.929,432.377 			"/>
			<polyline fill="#758082" points="508.929,432.377 505.606,434.312 505.606,441.496 508.862,439.592 508.929,432.377 			"/>
			<polyline fill="#E5F4F7" points="440.479,392.858 437.156,394.792 505.606,434.312 508.929,432.377 440.479,392.858 			"/>
			<polyline fill="#ADB5B6" points="440.479,392.858 437.156,394.792 505.606,434.312 508.929,432.377 440.479,392.858 			"/>
			<polyline fill="#E5F4F7" points="437.156,409.163 437.153,416.351 505.606,455.867 505.606,448.683 437.156,409.163 			"/>
			<polyline fill="#909193" points="437.156,409.163 437.153,416.351 505.606,455.867 505.606,448.683 437.156,409.163 			"/>
			<polyline fill="#E5F4F7" points="508.929,446.748 505.606,448.683 505.606,455.867 508.862,453.963 508.929,446.748 			"/>
			<polyline fill="#758082" points="508.929,446.748 505.606,448.683 505.606,455.867 508.862,453.963 508.929,446.748 			"/>
			<polyline fill="#E5F4F7" points="440.479,407.229 437.156,409.163 505.606,448.683 508.929,446.748 440.479,407.229 			"/>
			<polyline fill="#ADB5B6" points="440.479,407.229 437.156,409.163 505.606,448.683 508.929,446.748 440.479,407.229 			"/>
			<path fill="#CACACC" d="M380.433,426.845l0.124,38.563c0.023,7.169-3.792,13.802-10.001,17.386l-27.301,15.76l87.119,50.298
				l27.396-15.734c6.21-3.566,10.039-10.182,10.039-17.343v-38.711L380.433,426.845"/>
			<polyline fill="#A0A7AD" points="343.251,498.553 343.251,505.741 349.479,502.146 343.251,498.553 			"/>
			<polyline fill="#E4E4E5" points="380.444,430.747 380.453,433.857 380.455,433.859 380.445,430.748 380.444,430.747 			"/>
			<path fill="#B5B5B7" d="M390.651,432.721l-0.846,3.81l-2.351,1.37l80.349,46.396v-7.229L390.651,432.721 M381.795,427.63
				l0.018,3.907l-1.368-0.789l0.01,3.111l4.028,2.326l1.383-6.215l-0.673-0.387l-3.38,1.953L381.795,427.63"/>
			<polyline fill="#EB4517" points="228.887,520.784 77.075,433.201 77.075,404.433 228.887,492.016 228.887,520.784 			"/>
			<polyline fill="#F37C54" points="228.887,520.784 77.075,433.201 77.075,404.433 228.887,492.016 228.887,520.784 			"/>
			<polyline fill="#FFFFFF" points="80.86,416.728 79.372,415.868 79.372,405.758 80.86,406.616 80.86,416.728 			"/>
			<polyline fill="#FFFFFF" points="84.598,418.884 83.109,418.024 83.109,407.914 84.598,408.773 84.598,418.884 			"/>
			<polyline fill="#FFFFFF" points="88.336,421.04 86.847,420.181 86.847,410.07 88.336,410.93 88.336,421.04 			"/>
			<polyline fill="#FFFFFF" points="92.074,423.196 90.585,422.338 90.585,412.228 92.074,413.086 92.074,423.196 			"/>
			<polyline fill="#FFFFFF" points="99.55,427.51 98.061,426.65 98.061,416.54 99.55,417.398 99.55,427.51 			"/>
			<polyline fill="#FFFFFF" points="103.288,429.666 101.799,428.807 101.799,418.696 103.288,419.556 103.288,429.666 			"/>
			<polyline fill="#FFFFFF" points="107.025,431.822 105.537,430.963 105.537,420.854 107.025,421.712 107.025,431.822 			"/>
			<polyline fill="#FFFFFF" points="110.763,433.979 109.274,433.12 109.274,423.01 110.763,423.868 110.763,433.979 			"/>
			<polyline fill="#FFFFFF" points="118.239,438.292 116.75,437.433 116.75,427.322 118.239,428.182 118.239,438.292 			"/>
			<polyline fill="#FFFFFF" points="121.977,440.448 120.488,439.589 120.488,429.479 121.977,430.338 121.977,440.448 			"/>
			<polyline fill="#FFFFFF" points="125.715,442.604 124.226,441.746 124.226,431.635 125.715,432.494 125.715,442.604 			"/>
			<polyline fill="#FFFFFF" points="129.453,444.761 127.964,443.902 127.964,433.791 129.453,434.65 129.453,444.761 			"/>
			<polyline fill="#FFFFFF" points="136.929,449.074 135.44,448.215 135.44,438.104 136.929,438.963 136.929,449.074 			"/>
			<polyline fill="#FFFFFF" points="140.667,451.23 139.178,450.371 139.178,440.261 140.667,441.12 140.667,451.23 			"/>
			<polyline fill="#FFFFFF" points="144.404,453.387 142.916,452.528 142.916,442.417 144.404,443.276 144.404,453.387 			"/>
			<polyline fill="#FFFFFF" points="148.143,455.543 146.653,454.685 146.653,444.574 148.143,445.433 148.143,455.543 			"/>
			<polyline fill="#FFFFFF" points="155.618,459.856 154.129,458.997 154.129,448.887 155.618,449.746 155.618,459.856 			"/>
			<polyline fill="#FFFFFF" points="159.356,462.013 157.867,461.153 157.867,451.043 159.356,451.902 159.356,462.013 			"/>
			<polyline fill="#FFFFFF" points="163.094,464.169 161.605,463.311 161.605,453.199 163.094,454.059 163.094,464.169 			"/>
			<polyline fill="#FFFFFF" points="166.832,466.325 165.343,465.467 165.343,455.356 166.832,456.215 166.832,466.325 			"/>
			<polyline fill="#FFFFFF" points="174.308,470.639 172.819,469.779 172.819,459.669 174.308,460.528 174.308,470.639 			"/>
			<polyline fill="#FFFFFF" points="178.045,472.795 176.557,471.936 176.557,461.825 178.045,462.685 178.045,472.795 			"/>
			<polyline fill="#FFFFFF" points="181.783,474.951 180.294,474.093 180.294,463.982 181.783,464.841 181.783,474.951 			"/>
			<polyline fill="#FFFFFF" points="185.521,477.107 184.032,476.249 184.032,466.139 185.521,466.997 185.521,477.107 			"/>
			<polyline fill="#FFFFFF" points="192.997,481.421 191.508,480.562 191.508,470.451 192.997,471.311 192.997,481.421 			"/>
			<polyline fill="#FFFFFF" points="196.735,483.577 195.246,482.719 195.246,472.607 196.735,473.467 196.735,483.577 			"/>
			<polyline fill="#FFFFFF" points="200.473,485.733 198.984,484.875 198.984,474.764 200.473,475.623 200.473,485.733 			"/>
			<polyline fill="#FFFFFF" points="204.211,487.891 202.722,487.031 202.722,476.921 204.211,477.779 204.211,487.891 			"/>
			<polyline fill="#FFFFFF" points="211.687,492.203 210.198,491.344 210.198,481.233 211.687,482.093 211.687,492.203 			"/>
			<polyline fill="#FFFFFF" points="215.424,494.359 213.936,493.5 213.936,483.39 215.424,484.249 215.424,494.359 			"/>
			<polyline fill="#FFFFFF" points="219.162,496.516 217.673,495.657 217.673,485.547 219.162,486.405 219.162,496.516 			"/>
			<polyline fill="#FFFFFF" points="222.9,498.672 221.412,497.813 221.412,487.703 222.9,488.562 222.9,498.672 			"/>
			<polyline fill="#FFFFFF" points="95.812,429.627 94.323,428.768 94.323,414.384 95.812,415.242 95.812,429.627 			"/>
			<polyline fill="#FFFFFF" points="114.501,440.409 113.012,439.55 113.012,425.166 114.501,426.024 114.501,440.409 			"/>
			<polyline fill="#FFFFFF" points="133.191,451.191 131.702,450.332 131.702,435.948 133.191,436.807 133.191,451.191 			"/>
			<polyline fill="#FFFFFF" points="151.88,461.974 150.392,461.114 150.392,446.73 151.88,447.589 151.88,461.974 			"/>
			<polyline fill="#FFFFFF" points="170.57,472.756 169.081,471.896 169.081,457.513 170.57,458.371 170.57,472.756 			"/>
			<polyline fill="#FFFFFF" points="189.259,483.538 187.771,482.679 187.771,468.295 189.259,469.153 189.259,483.538 			"/>
			<polyline fill="#FFFFFF" points="207.949,494.32 206.46,493.461 206.46,479.077 207.949,479.936 207.949,494.32 			"/>
			<polyline fill="#FFFFFF" points="226.638,505.103 225.149,504.243 225.149,489.859 226.638,490.719 226.638,505.103 			"/>
			<polyline fill="#F37C54" points="235.325,488.701 235.325,517.367 228.887,520.784 228.887,492.016 235.325,488.701 			"/>
			<polyline fill="#C76746" points="235.325,488.701 228.887,492.016 228.887,520.784 235.325,517.367 235.325,488.701 			"/>
			<polyline fill="#F37C54" points="77.075,404.433 83.491,400.701 235.325,488.701 228.887,492.016 77.075,404.433 			"/>
			<polyline fill="#F8B29B" points="83.491,400.701 77.075,404.433 228.887,492.016 235.325,488.701 83.491,400.701 			"/>
			<path fill="#C59E78" d="M620.086,609.229c0,1.793-0.588,3.097-1.587,3.845l-0.725,0.404l-0.03,0.022
				c-1.435,0.595-3.417,0.328-5.614-0.946c-1.96-1.151-3.768-2.913-5.156-4.904l-0.008-0.008c-1.701-2.448-2.776-5.239-2.776-7.65
				c0-1.838,0.618-3.165,1.663-3.905l0.061-0.038l0.336-0.19l0.022-0.016c1.449-0.747,3.54-0.526,5.858,0.824
				c1.991,1.159,3.829,2.952,5.218,4.98l0.045,0.069C619.048,604.127,620.086,606.865,620.086,609.229"/>
			<path fill="#485654" d="M617.393,601.717l-0.511,0.198l-0.054,0.022l-4.317,2.502l-5.537,3.211l-68.122,39.455l-54.057,31.342
				l-0.008,0.008l-0.785,0.45l-10.504-6.308l0.268-0.153l132.087-76.357l0.061-0.038l0.336-0.19l0.022-0.016
				c1.449-0.747,3.54-0.526,5.858,0.824c1.991,1.159,3.829,2.952,5.218,4.98L617.393,601.717"/>
			<path fill="#6E8583" d="M608.146,595.419c-0.7,0-1.332,0.145-1.875,0.424l-0.022,0.016l-0.336,0.19l-0.061,0.038l-132.02,76.318
				c0.5-0.222,1.069-0.337,1.693-0.337c1.166,0,2.521,0.4,3.967,1.241c2.043,1.188,3.899,3.049,5.303,5.138l54.056-31.342
				l68.114-39.463l5.545-3.203l4.317-2.502l0.054-0.022l0.466-0.268c-1.389-2.028-3.227-3.821-5.218-4.98
				C610.679,595.822,609.317,595.419,608.146,595.419"/>
			<path fill="#485654" d="M620.086,609.229c0,1.793-0.588,3.097-1.587,3.845l-0.725,0.404l-0.03,0.022L485.42,689.889l-0.122,0.077
				v-0.023l-0.495-11.479v-0.008l54.049-31.35l68.114-39.463l5.545-3.203l4.371-2.524l0.466-0.268l0.045,0.069
				C619.048,604.127,620.086,606.865,620.086,609.229"/>
			<path fill="#485654" d="M465.162,688.313l1.532-3.144l0.067-0.136l5.263-10.761l0.191-0.395h0.008
				c1.208-2.118,4.007-2.467,7.27-0.569c2.045,1.189,3.903,3.053,5.307,5.144h0.002v0.004c1.592,2.371,2.597,5.036,2.597,7.355
				c0,2.938-1.605,4.561-3.982,4.541v0.011l-13.049-0.271h-0.124l-0.314-0.012l-3.73-0.079c-0.338-0.011-0.631-0.146-0.834-0.36
				l-0.135-0.181l-0.102-0.18C465.004,688.979,465.004,688.64,465.162,688.313"/>
			<path fill="#5B6E6C" d="M483.629,690.352c-0.045,0.001-0.092,0.002-0.138,0.002c-0.025,0-0.05,0-0.075-0.001v0.001
				c0.014,0,0.028,0,0.042,0C483.516,690.354,483.573,690.354,483.629,690.352 M485.356,689.92l-0.059,0.027
				c-0.326,0.162-0.688,0.28-1.078,0.346C484.631,690.226,485.012,690.101,485.356,689.92 M486.466,681.553
				c0.055,0.136,0.105,0.272,0.15,0.405l0.078,0.191c0.248,0.698,0.439,1.386,0.553,2.051c0.045,0.248,0.079,0.496,0.102,0.732
				v0.045c0.033,0.282,0.045,0.563,0.045,0.834l0,0l0,0c0,1.211-0.271,2.2-0.757,2.942c0.488-0.741,0.762-1.729,0.762-2.941
				C487.398,684.467,487.061,683.006,486.466,681.553 M484.802,678.457v0.008l0.09,0.136c0.158,0.236,0.305,0.473,0.439,0.71
				l0.057,0.078c0.169,0.293,0.338,0.598,0.484,0.891c0.158,0.304,0.305,0.608,0.439,0.912l0.008,0.016
				C485.91,680.271,485.397,679.345,484.802,678.457L484.802,678.457 M475.526,672.068c-1.464,0-2.631,0.631-3.303,1.811h-0.008
				l-0.191,0.395l-5.263,10.761l-0.067,0.136l-1.532,3.144c-0.084,0.173-0.123,0.35-0.123,0.523c0,0.152,0.031,0.303,0.089,0.445
				l0.102,0.18v0.001l2.186-1.24l2.84-1.589l0.35-0.202l3.797-2.13l9.601-5.397l0.789-0.45h0.011v-0.001H484.8
				c-1.403-2.091-3.262-3.954-5.307-5.144C478.047,672.469,476.692,672.068,475.526,672.068"/>
			<path fill="#485654" d="M465.229,689.463l0.135,0.18c0.192,0.226,0.496,0.36,0.834,0.372l0.958,0.022l3.042,0.067h0.045v-0.011
				h0.124l13.049,0.271v-0.012c0.698,0.012,1.341-0.136,1.882-0.405l0.124-0.057c1.228-0.676,1.972-2.073,1.972-4.079
				c0-0.271-0.012-0.552-0.045-0.834v-0.045c-0.022-0.236-0.057-0.484-0.102-0.732c-0.113-0.665-0.305-1.353-0.553-2.051
				l-0.078-0.191c-0.079-0.236-0.181-0.484-0.282-0.721l-0.022-0.046c-0.135-0.304-0.281-0.608-0.439-0.912
				c-0.146-0.293-0.315-0.598-0.484-0.891l-0.057-0.078c-0.135-0.237-0.281-0.474-0.439-0.71l-0.09-0.136v-0.011h-0.011l-0.789,0.45
				l-9.601,5.397l-3.797,2.13l-0.35,0.202l-2.84,1.589L465.229,689.463"/>
			<path fill="#3B4846" d="M484.802,678.454L484.802,678.454h-0.011l-0.789,0.45l-9.601,5.397l-3.797,2.13l-0.35,0.202l-2.84,1.589
				l-2.186,1.24l0,0l0.135,0.18c0.192,0.226,0.496,0.36,0.834,0.372l0.958,0.022l3.042,0.067h0.045v-0.011h0.124l13.049,0.271
				v-0.011v-0.001l0,0c0.025,0.001,0.05,0.001,0.075,0.001c0.669,0,1.285-0.146,1.807-0.406l0.124-0.057
				c1.228-0.676,1.972-2.073,1.972-4.079c0-0.271-0.012-0.552-0.045-0.834v-0.045c-0.022-0.236-0.057-0.484-0.102-0.732
				c-0.113-0.665-0.305-1.353-0.553-2.051l-0.078-0.191c-0.079-0.236-0.181-0.484-0.282-0.721l-0.022-0.046
				c-0.135-0.304-0.281-0.608-0.439-0.912c-0.146-0.293-0.315-0.598-0.484-0.891l-0.057-0.078c-0.135-0.237-0.281-0.474-0.439-0.71
				l-0.09-0.136V678.454"/>
			<path fill="#262729" d="M465.128,689.282l0.09,0.181h0.012l0.135,0.18c0.192,0.226,0.496,0.36,0.834,0.372l0.958,0.022
				l3.042,0.067h0.046v-0.011l0.011-3.46v-0.067l-3.561-1.397l-1.532,3.145C465.004,688.64,465.004,688.979,465.128,689.282z"/>
			<path fill="#262729" d="M466.563,685.878c0,1.341,1.087,3.061,2.429,3.841s2.429,0.325,2.429-1.016
				c0-1.342-1.087-3.062-2.429-3.842S466.563,684.536,466.563,685.878z"/>
			<polyline fill="#7F56C5" points="244.198,585.155 244.198,563.6 262.866,574.378 262.866,595.934 244.198,585.155 			"/>
			<polyline fill="#C2A9E3" points="244.198,563.6 244.198,585.155 262.866,595.934 262.866,574.378 244.198,563.6 			"/>
			<polyline fill="#7F56C5" points="244.198,563.6 262.866,552.821 281.534,563.6 262.866,574.378 244.198,563.6 			"/>
			<polyline opacity="0.8" fill="#E8DBF3" points="262.866,552.821 244.198,563.6 262.866,574.378 281.534,563.6 262.866,552.821 
							"/>
			<polygon fill="#00A19B" points="262.866,574.378 281.534,563.6 281.534,585.156 262.866,595.934 			"/>
			<polygon fill="#7F56C5" points="262.866,574.378 281.534,563.6 281.534,585.156 262.866,595.934 			"/>
			<polygon fill="#7C98AB" points="182.114,376.739 182.114,355.183 200.783,365.961 200.783,387.517 			"/>
			<polygon fill="#A7BAC9" points="182.114,355.183 200.783,344.404 219.451,355.183 200.783,365.961 			"/>
			<polygon fill="#00A19B" points="200.783,365.961 219.451,355.183 219.451,376.739 200.783,387.517 			"/>
			<polygon fill="#5D7E95" points="200.783,365.961 219.451,355.183 219.451,376.739 200.783,387.517 			"/>
			<polyline fill="#CF3A52" points="169.614,419.989 169.614,398.433 188.283,409.211 188.283,430.768 169.614,419.989 			"/>
			<polyline fill="#E3516E" points="169.614,398.433 169.614,419.989 188.283,430.768 188.283,409.211 169.614,398.433 			"/>
			<polyline fill="#CF3A52" points="169.614,398.433 188.283,387.654 206.951,398.433 188.283,409.211 169.614,398.433 			"/>
			<polyline fill="#F6678A" points="188.283,387.654 169.614,398.433 188.283,409.211 206.951,398.433 188.283,387.654 			"/>
			<polygon fill="#CF3A52" points="188.283,409.211 206.951,398.433 206.951,419.989 188.283,430.768 			"/>
			<polyline fill="#5CD2D2" points="138.587,301.219 88.908,330.017 88.931,387.515 138.587,358.729 138.587,301.219 			"/>
			<polyline fill="#21ADAD" points="138.587,301.219 88.908,330.017 88.931,387.515 138.587,358.729 138.587,301.219 			"/>
			<path fill="#FFFFFF" d="M128.451,346.465c0-3.285-2.663-4.415-5.948-2.524c-3.285,1.891-5.948,6.087-5.948,9.372
				c0,3.285,2.663,4.415,5.948,2.524S128.451,349.75,128.451,346.465z"/>
			<path fill="#FFFFFF" d="M128.451,323.247c0-3.285-2.663-4.415-5.948-2.524s-5.948,6.087-5.948,9.372
				c0,3.285,2.663,4.415,5.948,2.524C125.788,330.728,128.451,326.532,128.451,323.247z"/>
			<path fill="#FFFFFF" d="M109.233,345.919c0-3.285-2.663-4.415-5.948-2.524c-3.285,1.891-5.948,6.087-5.948,9.372
				c0,3.285,2.663,4.415,5.948,2.524C106.57,353.399,109.233,349.204,109.233,345.919z"/>
			<polygon fill="#FFFFFF" points="104.511,347.258 102.636,351.443 121.277,351.973 123.152,347.788 			"/>
			<polygon fill="#FFFFFF" points="121.277,325.998 102.636,347.989 104.511,350.016 123.152,328.024 			"/>
			<polygon fill="#FFFFFF" points="169.591,642.57 219.436,613.864 269.155,642.57 219.379,671.303 			"/>
			<polygon fill="#E6E7E8" points="169.591,642.57 169.591,649.756 219.408,678.518 269.155,649.756 269.155,642.57 
				219.379,671.303 			"/>
			<polygon fill="#D3D1D3" points="219.379,671.303 219.408,678.518 269.155,649.756 269.155,642.57 			"/>
			<polyline fill="#5CD2D2" points="88.931,387.515 82.533,383.767 82.533,326.517 88.908,330.017 88.931,387.515 			"/>
			<polyline fill="#8B9092" points="446.236,586.771 446.25,593.88 446.236,586.771 446.236,586.771 			"/>
			<g>
				<polyline fill="#A4DAE7" points="514.68,547.246 446.236,586.771 446.25,593.88 449.583,595.849 518.028,556.367 
					518.028,549.177 514.68,547.246 				"/>
				<polyline fill="#D3ECF3" points="446.236,586.771 446.25,593.88 449.583,595.849 449.583,588.692 446.236,586.771 				"/>
				<polyline fill="#D3ECF3" points="514.68,547.246 514.68,547.246 446.236,586.771 446.236,586.771 449.583,588.692 
					518.028,549.177 514.68,547.246 				"/>
			</g>
			<g>
				<polyline fill="#A4DAE7" points="502.347,540.163 433.902,579.688 433.917,586.797 437.25,588.766 505.694,549.284 
					505.694,542.094 502.347,540.163 				"/>
				<polyline fill="#D3ECF3" points="433.902,579.688 433.917,586.797 437.25,588.766 437.25,581.609 433.902,579.688 				"/>
				<polyline fill="#D3ECF3" points="502.347,540.163 433.902,579.688 437.25,581.609 505.694,542.094 502.347,540.163 				"/>
			</g>
			<polyline fill="#747678" points="530.478,556.429 530.478,556.429 530.478,563.619 462.032,603.101 530.478,563.619 
				530.478,556.429 			"/>
			<g>
				<polyline fill="#A4DAE7" points="527.129,554.498 458.685,594.022 458.699,601.132 462.032,603.101 530.478,563.619 
					530.478,556.429 527.129,554.498 				"/>
				<polyline fill="#D3ECF3" points="458.686,594.022 458.699,601.132 462.032,603.101 462.032,595.944 458.686,594.022 				"/>
				<polyline fill="#D3ECF3" points="527.129,554.498 527.129,554.498 458.686,594.022 462.032,595.944 530.478,556.429 
					527.129,554.498 				"/>
			</g>
			<path fill="#C8858F" d="M620.119,609.228c0,1.771-0.57,3.05-1.54,3.8l-0.021,0.021l-0.75,0.43l-0.03,0.021l-8.33,4.81
				c0.99-0.75,1.57-2.04,1.57-3.82c0-2.359-1.04-5.1-2.7-7.51l-0.04-0.07c-1.39-2.029-3.229-3.819-5.22-4.979
				c-2.31-1.351-4.39-1.57-5.84-0.83l9.35-5.36c1.431-0.609,3.41-0.34,5.591,0.931c2,1.159,3.829,2.949,5.22,4.979l0.05,0.07
				C619.079,604.128,620.119,606.867,620.119,609.228z"/>
			<polygon fill="#A7BAC9" points="609.428,618.333 609.451,618.31 608.96,618.594 			"/>
			<polygon fill="#A7BAC9" points="597.178,601.117 596.842,601.308 596.781,601.346 597.222,601.094 597.2,601.102 			"/>
			<polygon fill="#A7BAC9" points="608.673,618.76 608.96,618.594 608.703,618.737 			"/>
			<polygon fill="#C8858F" points="604.633,596.808 605.782,596.147 605.652,596.257 604.873,596.707 			"/>
			<polygon fill="#C8858F" points="616.883,613.997 618.133,613.277 616.862,614.018 			"/>
			<polygon fill="#A7BAC9" points="616.836,614.044 616.859,614.021 616.368,614.305 			"/>
			<polygon fill="#A7BAC9" points="604.586,596.828 604.25,597.019 604.189,597.057 604.63,596.805 604.609,596.813 			"/>
			<polygon fill="#A7BAC9" points="616.081,614.471 616.368,614.305 616.111,614.448 			"/>
			<polyline fill="#CF3A52" points="318.366,627.934 368.211,599.229 417.931,627.934 368.155,656.667 318.366,627.934 			"/>
			<polyline fill="#F6678A" points="368.211,599.229 318.366,627.934 368.155,656.667 417.931,627.934 368.211,599.229 			"/>
			<polyline fill="#CF3A52" points="318.366,627.934 318.366,635.119 368.183,663.881 417.931,635.119 417.931,627.934 
				368.155,656.667 318.366,627.934 			"/>
			<polygon fill="#FFFFFF" points="382.012,620.697 378.35,628.16 387.031,635.107 373.479,634.277 366.251,640.492 
				361.538,632.517 348.389,629.411 359.028,625.313 358.13,617.178 369.419,622.619 			"/>
			<polyline fill="#E3516E" points="318.366,627.934 318.366,635.119 368.183,663.881 368.155,656.667 318.366,627.934 			"/>
			<polyline fill="#446CA9" points="113.312,543.832 163.157,515.126 212.876,543.832 163.1,572.565 113.312,543.832 			"/>
			<polyline opacity="0.5" fill="#446CA9" points="163.157,515.126 113.312,543.832 163.1,572.565 212.876,543.832 163.157,515.126 
							"/>
			<polyline fill="#1E428A" points="113.312,543.832 113.312,551.018 163.128,579.779 212.876,551.018 212.876,543.832 
				163.1,572.565 113.312,543.832 			"/>
			<path fill="#FFFFFF" d="M161.087,531.774l20.891,12.062c1.333,0.77,1.333,2.694,0,3.464l-14.669,8.47
				c-0.618,0.356-1.38,0.357-1.999,0.001l-11.175-6.44l-9.736-5.609c-1.334-0.77-1.335-2.695-0.001-3.466l14.689-8.48
				C159.706,531.417,160.468,531.417,161.087,531.774z"/>
			<polygon fill="#FFFFFF" points="153.865,556.347 160.082,552.757 154.136,549.33 			"/>
			<polyline opacity="0.25" fill="#959BC4" points="113.312,543.832 113.312,551.018 163.128,579.779 163.1,572.565 
				113.312,543.832 			"/>
			<polyline fill="#E7E9EA" points="349.478,502.147 343.251,505.741 430.376,556.038 343.254,505.741 349.479,502.148 
				349.478,502.147 			"/>
			<polyline fill="#AFB6BB" points="349.479,502.148 343.254,505.741 430.376,556.038 430.373,548.851 349.479,502.148 			"/>
			<polyline fill="#AFB6BB" points="343.251,498.553 343.251,505.741 349.478,502.147 343.251,498.553 			"/>
			<polyline fill="#543E36" points="358.458,332.108 364.628,328.476 370.878,332.109 352.478,414.939 346.275,418.554 
				364.707,335.741 358.458,332.108 			"/>
			<polyline fill="#72594B" points="355.762,352.04 355.762,359.226 393.108,380.783 393.075,373.579 355.762,352.04 			"/>
			<polyline fill="#543E36" points="355.762,352.04 361.919,348.485 399.327,370.003 399.327,377.189 393.108,380.783 
				393.075,373.579 355.762,352.04 			"/>
			<polyline fill="#FFFFFE" points="366.658,351.205 366.652,351.208 399.227,369.946 366.658,351.205 			"/>
			<polyline fill="#D2CFCB" points="366.658,351.205 366.652,351.208 399.227,369.946 366.658,351.205 			"/>
			<polyline fill="#B19380" points="360.478,354.763 360.474,354.765 393.075,373.579 360.478,354.763 			"/>
			<polyline fill="#A08171" points="366.652,351.208 360.478,354.763 393.075,373.579 393.108,380.783 397.362,378.325 
				399.227,369.946 366.652,351.208 			"/>
			<polyline fill="#72594B" points="350.095,377.395 350.095,384.58 387.441,406.138 387.408,398.933 350.095,377.395 			"/>
			<polyline fill="#543E36" points="350.095,377.395 356.253,373.839 393.661,395.358 393.661,402.543 387.441,406.138 
				387.408,398.933 350.095,377.395 			"/>
			<polyline fill="#FFFFFE" points="361.003,376.564 361.001,376.571 393.581,395.312 393.581,395.312 361.003,376.564 			"/>
			<polyline fill="#FFFFFF" points="361.003,376.564 361.001,376.571 393.581,395.312 393.581,395.312 361.003,376.564 			"/>
			<polyline fill="#A08171" points="360.999,376.562 360.992,376.565 361.001,376.571 361.003,376.564 360.999,376.562 			"/>
			<polyline fill="#A08171" points="360.992,376.565 354.836,380.103 387.408,398.933 387.441,406.138 391.722,403.663 
				393.581,395.312 361.001,376.571 360.992,376.565 			"/>
			<polyline fill="#543E36" points="395.784,353.699 401.955,350.066 408.205,353.7 389.805,436.53 383.603,440.145 
				402.034,357.332 395.784,353.699 			"/>
			<polyline fill="#72594B" points="340.046,414.932 346.275,418.554 364.707,335.741 358.458,332.108 340.046,414.932 			"/>
			<polyline fill="#A08171" points="358.724,331.956 358.465,332.108 358.723,332.258 358.724,331.956 			"/>
			<polyline fill="#A08171" points="401.955,350.066 396.676,353.174 395.784,353.699 402.034,357.332 408.205,353.7 
				401.955,350.066 			"/>
			<polyline fill="#543E36" points="347.163,382.863 353.333,379.23 359.583,382.863 327.066,529.308 320.864,532.922 
				353.412,386.496 347.163,382.863 			"/>
			<polyline fill="#72594B" points="344.467,402.794 344.467,409.979 381.813,431.537 381.779,424.333 344.467,402.794 			"/>
			<polyline fill="#72594B" points="337.866,456.434 334.804,461.861 372.15,483.419 372.116,476.215 337.866,456.434 			"/>
			<polyline fill="#72594B" points="332.199,481.934 328.584,487.062 365.931,508.619 365.897,501.415 332.199,481.934 			"/>
			<polyline fill="#72594B" points="343.542,430.864 342.158,437.268 376.146,456.892 376.113,449.688 343.542,430.864 			"/>
			<polyline fill="#72594B" points="326.533,507.351 322.346,512.147 359.692,533.705 359.659,526.501 326.533,507.351 			"/>
			<polyline fill="#543E36" points="326.533,507.351 332.658,503.768 365.912,522.926 365.912,530.11 359.692,533.705 
				359.659,526.501 326.533,507.351 			"/>
			<polyline fill="#543E36" points="344.467,402.794 350.625,399.239 388.032,420.758 388.032,427.943 381.813,431.537 
				381.779,424.333 344.467,402.794 			"/>
			<polyline fill="#543E36" points="343.542,430.864 349.699,427.309 382.365,446.112 382.365,453.297 376.146,456.892 
				376.113,449.688 343.542,430.864 			"/>
			<polyline fill="#543E36" points="337.866,456.434 344.053,452.871 378.369,472.64 378.369,479.824 372.15,483.419 
				372.116,476.215 337.866,456.434 			"/>
			<polyline fill="#543E36" points="332.199,481.934 338.366,478.393 372.15,497.84 372.15,505.025 365.931,508.619 
				365.897,501.415 332.199,481.934 			"/>
			<polyline fill="#A08171" points="355.345,401.955 349.155,405.499 381.779,424.333 381.813,431.537 388.032,427.943 
				388.032,420.758 355.345,401.955 			"/>
			<polyline fill="#A08171" points="349.699,427.309 343.542,430.864 376.113,449.688 376.146,456.892 382.365,453.297 
				382.365,446.112 380.491,445.033 349.699,427.309 			"/>
			<polyline fill="#A08171" points="344.053,452.871 344.036,452.882 337.866,456.434 372.116,476.215 372.15,483.419 
				378.369,479.824 378.369,474.567 378.369,472.64 344.053,452.871 			"/>
			<polyline fill="#A08171" points="338.366,478.393 332.199,481.934 365.897,501.415 365.931,508.619 372.15,505.025 
				372.15,497.84 358.3,489.867 338.366,478.393 			"/>
			<polyline fill="#A08171" points="332.658,503.768 326.533,507.351 359.659,526.501 359.692,533.705 365.912,530.11 
				365.912,522.926 332.658,503.768 			"/>
			<polygon fill="#543E36" points="384.489,404.453 390.66,400.821 396.91,404.454 364.394,550.897 358.191,554.512 
				390.739,408.086 			"/>
			<polygon fill="#72594B" points="314.635,529.299 320.894,532.922 357.083,369.932 347.163,382.863 			"/>
			<polygon fill="#72594B" points="351.198,378.003 351.198,385.189 388.544,406.746 388.511,399.542 			"/>
			<polygon fill="#72594B" points="351.962,550.89 358.191,554.512 396.364,382.594 384.489,404.453 			"/>
			<polygon fill="#543E36" points="353.904,402.765 355.345,401.955 355.63,400.755 350.619,399.084 350.282,400.609 			"/>
			<polygon fill="#72594B" points="377.373,436.522 383.603,440.145 402.034,357.332 395.784,353.699 			"/>
			<polyline fill="#008FBE" points="356.501,298.362 357.499,297.762 363.697,294.154 364.937,294.87 371.204,298.492 
				364.937,302.05 358.773,298.493 358.771,298.495 358.483,298.329 356.849,299.087 356.501,298.362 			"/>
			<path fill="#008FBE" d="M370.173,297.896l1.031,0.596l0,0L370.173,297.896 M363.697,294.154l-6.198,3.608l-0.997,0.6l0.348,0.725
				l1.634-0.758l0.289,0.166l0.002-0.001l6.148,3.548l0.011-7.167l4.407,2.545l0.003-0.003l-4.406-2.546L363.697,294.154"/>
			<polyline fill="#00C1DE" points="377.382,309.241 377.382,352.354 358.709,341.592 358.771,298.495 377.382,309.241 			"/>
			<polyline fill="#00C1DE" points="383.543,305.621 383.543,348.733 364.87,337.972 364.933,294.875 383.543,305.621 			"/>
			<polygon fill="#55565A" points="377.382,352.352 377.382,395.465 367.773,389.939 367.773,346.827 			"/>
			<polygon fill="#55565A" points="367.773,346.826 367.773,389.939 358.709,384.658 358.709,341.545 			"/>
			<polyline fill="#008FBE" points="383.546,305.625 383.546,348.735 377.387,345.175 377.387,309.245 383.546,305.625 			"/>
			<polygon fill="#008FBE" points="377.347,345.185 377.387,345.205 383.546,348.735 377.387,352.355 			"/>
			<polygon fill="#342E1F" points="366.065,388.948 369.481,390.936 369.481,347.823 366.065,345.836 			"/>
			<path fill="#00C1DE" d="M377.382,309.241l11.322,9.207c0.645,0.524,1.546,0.595,2.265,0.179l11.236-6.514v4.154l-11.243,6.507
				c-0.715,0.414-1.612,0.345-2.256-0.173l-11.319-9.113L377.382,309.241"/>
			<polyline fill="#008FBE" points="371.204,298.492 383.546,305.625 377.387,309.245 364.937,302.05 371.204,298.492 			"/>
			<path fill="#008FBE" d="M395.914,308.561l6.292,3.552l-11.236,6.513c-0.719,0.417-1.62,0.346-2.265-0.179l-11.322-9.207
				l6.164-3.616l5.11,5.353c0.636,0.667,1.646,0.813,2.444,0.353L395.914,308.561"/>
			<polyline fill="#008FBE" points="369.343,297.416 369.34,297.419 371.2,298.494 371.204,298.492 370.173,297.896 
				369.343,297.416 			"/>
			<polyline fill="#6FD1E6" points="369.34,297.419 364.937,302.05 371.2,298.494 369.34,297.419 			"/>
			<polyline fill="#FFFFFE" points="369.34,297.419 364.937,302.05 371.2,298.494 369.34,297.419 			"/>
			<polyline fill="#008FBE" points="371.204,298.492 371.2,298.494 364.937,302.05 377.387,309.245 377.387,309.245 
				377.382,309.241 383.546,305.625 371.204,298.492 			"/>
			<path fill="#008FBE" d="M383.546,305.625L383.546,305.625l-6.164,3.616l11.322,9.207c0.365,0.297,0.812,0.449,1.262,0.449
				c0.345,0,0.691-0.089,1.003-0.27l11.236-6.513l-6.292-3.552l-4.813,2.77c-0.312,0.18-0.655,0.267-0.997,0.267
				c-0.533,0-1.06-0.213-1.447-0.619L383.546,305.625"/>
			<polygon fill="#F0D0B4" points="399.211,306.733 395.989,308.538 402.234,312.144 405.502,310.285 			"/>
			<polygon fill="#F0D0B4" points="402.236,312.145 405.502,310.285 405.502,314.439 402.236,316.292 			"/>
			<polygon fill="#F0D0B4" points="358.717,341.593 355.523,339.803 355.523,336.586 358.709,338.341 			"/>
			<polygon fill="#342E1F" points="381.948,387.466 388.199,383.901 381.948,380.209 			"/>
			<path fill="#342E1F" d="M384.951,383.895l-7.569,4.386v7.184l12.412-7.204v-1.576C389.794,384.2,387.102,382.648,384.951,383.895
				z"/>
			<polygon fill="#342E1F" points="383.543,348.733 383.543,391.909 377.382,395.465 377.382,352.352 			"/>
			<path fill="#222222" d="M382.33,286.845l-9.95-5.689l-7.624,4.219c-1.264,0.699-2.052,2.025-2.063,3.469l-0.09,11.834
				l10.305,5.979l5.911-3.398c2.171-1.249,3.511-3.563,3.511-6.068V286.845z"/>
			<path fill="#F0D0B4" d="M382.33,289.268l-5.259,3.067c-1.229,0.717-1.985,2.033-1.985,3.456v9.636l3.747-2.165
				c2.164-1.25,3.498-3.561,3.498-6.061V289.268z"/>
			<path fill="#222222" d="M374.318,280.006l9.934,5.731v0.172c0,1.381-0.732,2.659-1.923,3.357v-2.423l-9.95-5.689L374.318,280.006
				z"/>
			<path fill="#00C1DE" d="M355.523,336.618l3.248,1.821v-39.944l-0.239-0.14c-1.333-0.779-3.009,0.183-3.009,1.727V336.618z"/>
			<polyline fill="#5CD2D2" points="82.533,326.517 132.533,297.767 138.587,301.219 88.908,330.017 82.533,326.517 			"/>
			<polyline fill="#9FE5E5" points="132.533,297.767 82.533,326.517 88.908,330.017 138.587,301.219 132.533,297.767 			"/>
			<polygon fill="#CF3A52" points="238.031,380.376 256.699,369.598 275.368,380.376 256.699,391.154 			"/>
			<polygon fill="#FFFFFF" points="238.031,380.376 256.699,369.598 275.368,380.376 256.699,391.154 			"/>
			<polygon fill="#D3D1D3" points="256.699,391.154 275.368,380.376 275.368,401.933 256.699,412.711 			"/>
			<polygon fill="#E6E7E8" points="238.031,401.933 238.031,380.376 256.699,391.154 256.699,412.711 			"/>
			<polyline fill="#77BC1F" points="511.864,610.156 511.864,588.6 530.533,599.378 530.533,620.934 511.864,610.156 			"/>
			<polyline opacity="0.5" fill="#BDE087" points="511.864,588.6 511.864,610.156 530.533,620.934 530.533,599.378 511.864,588.6 
							"/>
			<polyline fill="#A4D55D" points="511.864,588.6 530.533,577.821 549.201,588.6 530.533,599.378 511.864,588.6 			"/>
			<polyline fill="#BDE087" points="530.533,577.821 511.864,588.6 530.533,599.378 549.201,588.6 530.533,577.821 			"/>
			<polygon fill="#00A19B" points="530.532,599.378 549.201,588.6 549.201,610.156 530.532,620.934 			"/>
			<polygon fill="#77BC1F" points="530.532,599.378 549.201,588.6 549.201,610.156 530.532,620.934 			"/>
			<polygon fill="#77BC1F" points="530.532,599.378 549.201,588.6 549.201,610.156 530.532,620.934 			"/>
			<polyline fill="#FD5373" points="617.549,664.153 667.395,635.447 717.113,664.153 667.338,692.887 617.549,664.153 			"/>
			<polyline fill="#CF0A2C" points="617.549,664.153 617.549,671.339 667.366,700.101 717.113,671.339 717.113,664.153 
				667.338,692.887 617.549,664.153 			"/>
			<polyline fill="#F2C06B" points="200.866,448.434 250.711,419.729 300.431,448.434 250.655,477.167 200.866,448.434 			"/>
			<polyline fill="#F8DAA9" points="250.711,419.729 200.866,448.434 250.655,477.167 300.431,448.434 250.711,419.729 			"/>
			<polyline fill="#F2C06B" points="200.866,448.434 200.866,455.619 250.683,484.381 300.431,455.619 300.431,448.434 
				250.655,477.167 200.866,448.434 			"/>
			<path fill="#FFFFFF" d="M248.882,447.545l-17.363,2.76c0.077-0.06,0.165-0.125,0.262-0.186l21.876-13.561
				c0.097-0.06,0.204-0.114,0.3-0.163l-3.821,10.372C250,447.143,249.503,447.451,248.882,447.545z"/>
			<path fill="#FFFFFF" d="M256.973,436.832l11.396,6.604c1.067,0.618,0.966,1.727-0.223,2.464l-21.089,13.07
				c-1.19,0.737-3.036,0.835-4.103,0.217l-11.396-6.603c-0.232-0.136-0.422-0.297-0.528-0.476l17.513-2.666
				c0.921-0.141,1.765-0.442,2.425-0.852c0.66-0.408,1.135-0.924,1.338-1.48l3.857-10.579
				C256.464,436.589,256.74,436.697,256.973,436.832z"/>
			<polyline fill="#C69F59" points="300.431,448.434 300.431,448.434 250.655,477.167 250.683,484.381 300.431,455.619 
				300.431,448.434 			"/>
			<polyline fill="#F3F4F4" points="617.515,667.914 617.515,671.339 667.331,700.101 667.331,700.08 617.549,671.339 
				617.549,667.934 617.515,667.914 			"/>
			<polyline fill="#E4615B" points="617.549,667.934 617.549,671.339 667.331,700.08 667.304,692.956 664.116,694.799 
				664.081,694.779 664.081,694.799 617.549,667.934 			"/>
			<polyline fill="#446CA9" points="614.299,658.852 664.145,630.146 713.863,658.852 664.088,687.585 614.299,658.852 			"/>
			<polyline fill="#768EBE" points="620.619,655.212 614.299,658.852 664.088,687.585 713.863,658.852 713.806,658.818 
				670.366,683.934 620.619,655.212 			"/>
			<polyline fill="#1E428A" points="614.299,658.852 614.299,666.037 664.116,694.799 713.863,666.037 713.863,658.852 
				664.088,687.585 614.299,658.852 			"/>
			<polyline fill="#1CCFC9" points="620.549,647.986 670.395,619.28 720.113,647.986 670.338,676.719 620.549,647.986 			"/>
			<polyline fill="#8AE1DB" points="670.395,619.28 620.549,647.986 670.338,676.719 720.113,647.986 670.395,619.28 			"/>
			<polyline fill="#00A19B" points="620.549,647.986 620.549,655.171 670.366,683.934 720.113,655.172 720.113,647.986 
				670.338,676.719 620.549,647.986 			"/>
			<path fill="#FFFFFF" d="M689.022,651.26c-0.144-1.601-1.364-3.105-3.209-4.249s-4.313-1.926-6.992-2.075l-2.854-0.151
				l-0.154-1.714c-0.145-1.601-1.365-3.105-3.21-4.249s-4.313-1.926-6.992-2.076c-5.342-0.274-9.441,2.1-9.153,5.301l0.156,1.729
				l0.132,1.455l0.191,2.118l0.726,8.052l13.392,0.701l3.539,0.18l2.423,0.128l2.854,0.151
				C685.214,656.852,689.313,654.478,689.022,651.26z"/>
			<polyline fill="#00C4BC" points="620.549,647.986 620.549,655.171 670.366,683.934 670.338,676.719 620.549,647.986 			"/>
			<polyline fill="#F3F4F4" points="614.264,658.852 614.264,666.037 617.515,667.914 617.515,667.894 614.299,666.037 
				614.299,658.872 614.264,658.852 			"/>
			<polyline fill="#EDEEEE" points="617.515,667.894 617.515,667.914 617.549,667.934 617.549,667.914 617.515,667.894 			"/>
			<polyline fill="#F18B81" points="617.549,667.914 617.549,667.934 664.081,694.799 664.081,694.779 617.549,667.914 			"/>
			<polyline fill="#FFFFFF" points="617.549,667.914 617.549,667.934 664.081,694.799 664.081,694.779 617.549,667.914 			"/>
			<polyline fill="#5E6CA6" points="614.299,658.872 614.299,666.037 617.515,667.894 617.549,667.914 664.081,694.779 
				664.053,687.585 614.299,658.872 			"/>
		</g>
		<polygon fill="#72594B" points="383.603,440.145 377.373,436.522 395.784,353.699 402.034,357.332 		"/>
	</g>
</g>
</svg>
