<?xml version="1.0" encoding="utf-8"?>
<!-- Generator: Adobe Illustrator 16.0.0, SVG Export Plug-In . SVG Version: 6.00 Build 0)  -->
<!DOCTYPE svg PUBLIC "-//W3C//DTD SVG 1.1//EN" "http://www.w3.org/Graphics/SVG/1.1/DTD/svg11.dtd">
<svg version="1.1" xmlns="http://www.w3.org/2000/svg" xmlns:xlink="http://www.w3.org/1999/xlink" x="0px" y="0px"
	 width="891.204px" height="400px" viewBox="0 0 891.204 400" enable-background="new 0 0 891.204 400" xml:space="preserve">
<g id="Background">
</g>
<g id="Objects">
	<g>
		<defs>
			<rect id="SVGID_1_" x="91.204" width="800" height="400"/>
		</defs>
		<clipPath id="SVGID_2_">
			<use xlink:href="#SVGID_1_"  overflow="visible"/>
		</clipPath>
		<g clip-path="url(#SVGID_2_)">
			<g>
				<path opacity="0.7" fill="#30ACCE" d="M561.847,176.592l-29.769-63.396c-1.143-2.434-3.628-4.006-6.331-4.006
					c-1.026,0-2.019,0.221-2.949,0.659l-26.401,12.416c-3.479,1.636-4.979,5.796-3.345,9.275l29.769,63.396
					c0.978,2.083,3.104,3.428,5.417,3.428c0.877,0,1.727-0.189,2.523-0.564l28.224-13.273
					C561.96,183.129,563.244,179.569,561.847,176.592z"/>
				<g>
					<g>
						<g>
							<g>
								<path fill="#F4F4F4" d="M559.777,181.052l-28.224,13.272c-2.722,1.279-5.993,0.1-7.271-2.622l-29.769-63.396
									c-1.512-3.22-0.115-7.092,3.104-8.605l26.4-12.416c3.223-1.516,7.098-0.118,8.611,3.105l29.768,63.396
									C563.674,176.504,562.495,179.773,559.777,181.052z"/>
							</g>
							<g>
								<path fill="#BBBDBF" d="M529.244,195.345c-2.313,0-4.439-1.346-5.417-3.428l-29.769-63.397
									c-1.634-3.479-0.134-7.64,3.345-9.274l26.401-12.416c0.931-0.438,1.923-0.66,2.95-0.66c2.703,0,5.188,1.573,6.33,4.007
									l29.769,63.396c1.398,2.978,0.114,6.537-2.862,7.936l-28.224,13.273C530.971,195.154,530.121,195.345,529.244,195.345z
									 M526.755,107.177c-0.878,0-1.727,0.189-2.521,0.563l-26.401,12.415c-2.977,1.4-4.26,4.96-2.862,7.936l29.768,63.397
									c0.813,1.731,2.583,2.85,4.507,2.85c0.729,0,1.433-0.157,2.095-0.469l28.225-13.272c2.474-1.164,3.541-4.123,2.379-6.597
									l-29.768-63.396C531.196,108.521,529.069,107.177,526.755,107.177z"/>
							</g>
						</g>
						<path fill="#2C2E3A" d="M558.343,169.585l-34.7,16.318l-26.199-55.796c-0.234-0.499-0.02-1.095,0.479-1.33l32.891-15.467
							c0.499-0.234,1.096-0.02,1.33,0.48L558.343,169.585z"/>
						<path fill="#343A54" d="M515.915,116.296l-6.186,2.909c-0.118,0.056-0.261,0-0.319-0.124l0,0
							c-0.058-0.123-0.009-0.269,0.108-0.324l6.187-2.909c0.117-0.055,0.261,0.001,0.318,0.124l0,0
							C516.081,116.095,516.032,116.241,515.915,116.296z"/>
						
							<ellipse transform="matrix(0.9047 -0.4261 0.4261 0.9047 -2.671 227.7961)" fill="#343A54" cx="507.74" cy="119.867" rx="0.55" ry="0.578"/>
						<g>
							
								<ellipse transform="matrix(0.9049 -0.4255 0.4255 0.9049 -26.0807 248.5447)" fill="#FFFFFF" cx="543.296" cy="182.651" rx="3.143" ry="3.303"/>
						</g>
					</g>
					<path opacity="0.17" fill="#F2F2F2" d="M532.146,113.797l-23.106,41.009l-11.594-24.691c0,0-0.265-0.988,0.439-1.319
						s32.966-15.502,32.966-15.502S531.732,112.914,532.146,113.797z"/>
				</g>
			</g>
			<g>
				<path opacity="0.7" fill="#30ACCE" d="M525.447,213.86L446.7,189.998c-3.699-1.118-7.617,0.977-8.737,4.673l-32.556,107.432
					c-1.12,3.695,0.973,7.619,4.669,8.739l78.745,23.868c3.701,1.112,7.615-0.98,8.737-4.673l32.561-107.439
					C531.24,218.901,529.144,214.98,525.447,213.86z"/>
				<g>
					<g>
						<path fill="#BBBDBF" d="M495.546,327.016c-1.122,3.692-5.037,5.786-8.737,4.673l-78.746-23.867
							c-3.696-1.12-5.79-5.044-4.669-8.739L435.95,191.65c1.12-3.696,5.038-5.791,8.737-4.673l78.747,23.862
							c3.696,1.12,5.793,5.041,4.673,8.737L495.546,327.016z"/>
						<path fill="#F4F4F4" d="M494.539,326.705c-0.954,3.145-4.282,4.925-7.423,3.97l-78.748-23.862
							c-3.14-0.952-4.921-4.283-3.97-7.424l32.556-107.431c0.957-3.147,4.289-4.93,7.427-3.973l78.75,23.861
							c3.142,0.955,4.922,4.283,3.967,7.425L494.539,326.705z"/>
					</g>
					
						<rect x="420.693" y="205.741" transform="matrix(0.9567 0.2911 -0.2911 0.9567 95.2824 -124.5202)" fill="#2C2E3A" width="90.928" height="104.492"/>
					<polygon opacity="0.17" fill="#F2F2F2" points="524.86,221.237 418.257,259.229 437.87,194.77 					"/>
					<circle fill="#FFFFFF" cx="449.234" cy="313.605" r="4.111"/>
					<path fill="#343A54" d="M488.458,206.456l-12.122-3.688c-0.122-0.037-0.19-0.166-0.153-0.288l0.018-0.061
						c0.037-0.122,0.167-0.19,0.289-0.154l12.121,3.688c0.123,0.037,0.191,0.166,0.154,0.289l-0.019,0.06
						C488.709,206.424,488.58,206.493,488.458,206.456z"/>
					<circle fill="#343A54" cx="474.347" cy="201.888" r="0.616"/>
				</g>
			</g>
			<g>
				<path opacity="0.7" fill="#30ACCE" d="M242.652,258.237l-7.997-0.062c-0.149-0.326-0.472-0.556-0.854-0.557
					c-0.384-0.004-0.71,0.221-0.864,0.543l-5.345-0.041c-0.147-0.325-0.47-0.555-0.852-0.557c-0.381-0.004-0.708,0.221-0.861,0.543
					l-5.344-0.041c-0.147-0.325-0.471-0.553-0.854-0.556c-0.381-0.003-0.708,0.22-0.863,0.542l-5.345-0.041
					c-0.149-0.325-0.47-0.555-0.854-0.56c-0.381,0-0.708,0.225-0.86,0.546l-5.342-0.041c-0.149-0.324-0.472-0.554-0.856-0.555
					c-0.381-0.006-0.708,0.219-0.863,0.541l-5.342-0.041c-0.149-0.324-0.471-0.554-0.852-0.555
					c-0.386-0.006-0.712,0.219-0.866,0.541l-5.339-0.041c-0.148-0.325-0.472-0.556-0.854-0.557
					c-0.382-0.003-0.709,0.221-0.865,0.543l-5.343-0.041c-0.149-0.325-0.472-0.554-0.856-0.558c-0.38-0.002-0.707,0.223-0.861,0.544
					l-5.338-0.041c-0.15-0.324-0.475-0.555-0.857-0.558c-0.382-0.002-0.711,0.222-0.865,0.544l-8.005-0.063
					c-1.46-0.011-2.66,1.174-2.672,2.634l-0.792,101.809c-0.014,1.456,1.172,2.661,2.631,2.67l74.201,0.579
					c1.458,0.011,2.664-1.176,2.678-2.632l0.789-101.806C245.307,259.453,244.115,258.252,242.652,258.237z"/>
				<g>
					<g>
						<g>
							<path fill="#414654" d="M242.488,360.707c-0.014,1.457-1.219,2.644-2.677,2.633l-74.202-0.579
								c-1.459-0.009-2.646-1.214-2.631-2.671l0.792-101.808c0.011-1.46,1.212-2.645,2.671-2.634l74.197,0.575
								c1.463,0.015,2.655,1.216,2.639,2.678L242.488,360.707z"/>
							<path fill="#BCBEC0" d="M170.954,358.035c-2.093-0.018-3.796-1.743-3.781-3.839l0.695-89.445
								c0.016-2.096,1.746-3.8,3.844-3.784l63.583,0.494c2.095,0.014,3.797,1.747,3.782,3.842l-0.695,89.444
								c-0.015,2.101-1.742,3.8-3.839,3.785L170.954,358.035z"/>
							<path fill="#D1D3D4" d="M170.96,357.319c-2.095-0.018-3.796-1.744-3.782-3.845l0.697-89.44
								c0.014-2.101,1.747-3.801,3.841-3.786l63.582,0.496c2.098,0.018,3.799,1.747,3.784,3.841l-0.695,89.444
								c-0.015,2.099-1.745,3.801-3.84,3.784L170.96,357.319z"/>
							<path fill="#F1F2F2" d="M167.876,263.314l-0.012,1.585c0.012-2.1,1.743-3.795,3.84-3.782l63.586,0.496
								c2.095,0.013,3.798,1.743,3.783,3.839l0.008-1.582c0.02-2.095-1.684-3.826-3.777-3.842l-63.588-0.49
								C169.623,259.52,167.892,261.225,167.876,263.314z"/>
							<path fill="#FFFFFF" d="M170.968,356.603c-2.095-0.014-3.799-1.744-3.783-3.84l0.698-89.447
								c0.013-2.097,1.743-3.796,3.84-3.778l63.583,0.49c2.097,0.018,3.801,1.747,3.781,3.842l-0.694,89.447
								c-0.016,2.096-1.745,3.796-3.84,3.782L170.968,356.603z"/>
							<g>
								<g>
									<path fill="#808285" d="M231.735,262.444c-0.677-0.004-1.23,0.534-1.237,1.209c-0.003,0.676,0.54,1.23,1.219,1.237
										c0.678,0.008,1.217-0.542,1.225-1.215C232.949,262.997,232.412,262.45,231.735,262.444z"/>
									
										<linearGradient id="SVGID_3_" gradientUnits="userSpaceOnUse" x1="6715.2871" y1="1647.124" x2="6707.0337" y2="1647.124" gradientTransform="matrix(0.0077 -1 -1 -0.0077 1827.2013 6983.5752)">
										<stop  offset="0" style="stop-color:#DCDDDE"/>
										<stop  offset="1" style="stop-color:#A7A9AC"/>
									</linearGradient>
									<path fill="url(#SVGID_3_)" d="M231.787,255.605c-0.528-0.006-0.956,0.416-0.961,0.938l-0.053,6.8
										c-0.001,0.522,0.418,0.951,0.948,0.957l0,0c0.525-0.001,0.956-0.42,0.958-0.943l0.054-6.797
										C232.734,256.034,232.313,255.606,231.787,255.605L231.787,255.605z"/>
								</g>
								<g>
									<path fill="#808285" d="M224.674,262.39c-0.678-0.005-1.23,0.535-1.236,1.213c-0.001,0.675,0.538,1.228,1.215,1.233
										c0.678,0.005,1.229-0.542,1.235-1.216C225.895,262.94,225.353,262.394,224.674,262.39z"/>
									
										<linearGradient id="SVGID_4_" gradientUnits="userSpaceOnUse" x1="6715.2881" y1="1654.1846" x2="6707.0376" y2="1654.1846" gradientTransform="matrix(0.0077 -1 -1 -0.0077 1827.2013 6983.5752)">
										<stop  offset="0" style="stop-color:#DCDDDE"/>
										<stop  offset="1" style="stop-color:#A7A9AC"/>
									</linearGradient>
									<path fill="url(#SVGID_4_)" d="M224.726,255.551c-0.524-0.006-0.956,0.416-0.956,0.94l-0.052,6.799
										c-0.006,0.523,0.417,0.952,0.941,0.952l0,0c0.526,0.006,0.951-0.414,0.956-0.94l0.05-6.797
										C225.675,255.98,225.251,255.554,224.726,255.551L224.726,255.551z"/>
								</g>
								<g>
									<path fill="#808285" d="M217.613,262.335c-0.678-0.007-1.228,0.534-1.234,1.212c-0.001,0.672,0.541,1.228,1.218,1.234
										c0.676,0.006,1.223-0.54,1.229-1.213C218.833,262.894,218.292,262.339,217.613,262.335z"/>
									
										<linearGradient id="SVGID_5_" gradientUnits="userSpaceOnUse" x1="6715.2871" y1="1661.2451" x2="6707.0356" y2="1661.2451" gradientTransform="matrix(0.0077 -1 -1 -0.0077 1827.2013 6983.5752)">
										<stop  offset="0" style="stop-color:#DCDDDE"/>
										<stop  offset="1" style="stop-color:#A7A9AC"/>
									</linearGradient>
									<path fill="url(#SVGID_5_)" d="M217.667,255.497c-0.525-0.004-0.957,0.413-0.959,0.938l-0.055,6.8
										c-0.001,0.521,0.423,0.947,0.951,0.954l0,0c0.521,0.004,0.949-0.418,0.954-0.938l0.051-6.801
										C218.616,255.923,218.194,255.501,217.667,255.497L217.667,255.497z"/>
								</g>
								<g>
									<path fill="#808285" d="M210.555,262.279c-0.68-0.006-1.235,0.537-1.236,1.212c-0.005,0.674,0.536,1.23,1.214,1.236
										c0.679,0.003,1.231-0.544,1.234-1.219C211.774,262.834,211.23,262.282,210.555,262.279z"/>
									
										<linearGradient id="SVGID_6_" gradientUnits="userSpaceOnUse" x1="6715.291" y1="1668.3008" x2="6707.0356" y2="1668.3008" gradientTransform="matrix(0.0077 -1 -1 -0.0077 1827.2013 6983.5752)">
										<stop  offset="0" style="stop-color:#DCDDDE"/>
										<stop  offset="1" style="stop-color:#A7A9AC"/>
									</linearGradient>
									<path fill="url(#SVGID_6_)" d="M210.606,255.438c-0.524,0-0.955,0.418-0.954,0.941l-0.053,6.8
										c-0.005,0.522,0.417,0.952,0.94,0.956l0,0c0.526,0.005,0.955-0.42,0.959-0.943l0.054-6.797
										C211.552,255.872,211.134,255.444,210.606,255.438L210.606,255.438z"/>
								</g>
								<g>
									<path fill="#808285" d="M203.491,262.223c-0.668-0.004-1.218,0.536-1.229,1.213c-0.003,0.675,0.543,1.231,1.215,1.237
										c0.681,0.006,1.226-0.544,1.231-1.216C204.71,262.777,204.172,262.227,203.491,262.223z"/>
									
										<linearGradient id="SVGID_7_" gradientUnits="userSpaceOnUse" x1="6715.2871" y1="1675.3604" x2="6707.0386" y2="1675.3604" gradientTransform="matrix(0.0077 -1 -1 -0.0077 1827.2013 6983.5752)">
										<stop  offset="0" style="stop-color:#DCDDDE"/>
										<stop  offset="1" style="stop-color:#A7A9AC"/>
									</linearGradient>
									<path fill="url(#SVGID_7_)" d="M203.547,255.389c-0.523-0.008-0.955,0.414-0.959,0.935l-0.052,6.801
										c-0.004,0.524,0.418,0.951,0.941,0.954l0,0c0.529,0.003,0.959-0.416,0.965-0.938l0.051-6.8
										C204.498,255.816,204.075,255.391,203.547,255.389L203.547,255.389z"/>
								</g>
								<g>
									<path fill="#808285" d="M196.438,262.17c-0.679-0.003-1.23,0.533-1.236,1.211c-0.003,0.678,0.539,1.232,1.217,1.234
										c0.674,0.005,1.222-0.539,1.229-1.215C197.654,262.723,197.116,262.176,196.438,262.17z"/>
									
										<linearGradient id="SVGID_8_" gradientUnits="userSpaceOnUse" x1="6715.2871" y1="1682.4229" x2="6707.0366" y2="1682.4229" gradientTransform="matrix(0.0077 -1 -1 -0.0077 1827.2013 6983.5752)">
										<stop  offset="0" style="stop-color:#DCDDDE"/>
										<stop  offset="1" style="stop-color:#A7A9AC"/>
									</linearGradient>
									<path fill="url(#SVGID_8_)" d="M196.491,255.334c-0.531-0.008-0.958,0.412-0.963,0.938l-0.054,6.797
										c-0.001,0.522,0.418,0.949,0.95,0.957l0,0c0.525,0.004,0.955-0.418,0.955-0.941l0.055-6.801
										C197.435,255.763,197.015,255.336,196.491,255.334L196.491,255.334z"/>
								</g>
								<g>
									<path fill="#808285" d="M189.379,262.116c-0.678-0.005-1.229,0.533-1.234,1.212c-0.006,0.674,0.538,1.227,1.214,1.234
										c0.681,0.004,1.224-0.54,1.235-1.216C190.594,262.671,190.057,262.12,189.379,262.116z"/>
									
										<linearGradient id="SVGID_9_" gradientUnits="userSpaceOnUse" x1="6715.2891" y1="1689.4814" x2="6707.0405" y2="1689.4814" gradientTransform="matrix(0.0077 -1 -1 -0.0077 1827.2013 6983.5752)">
										<stop  offset="0" style="stop-color:#DCDDDE"/>
										<stop  offset="1" style="stop-color:#A7A9AC"/>
									</linearGradient>
									<path fill="url(#SVGID_9_)" d="M189.431,255.277c-0.524-0.005-0.957,0.415-0.962,0.938l-0.055,6.799
										c-0.002,0.525,0.426,0.952,0.95,0.954l0,0c0.527,0.008,0.953-0.414,0.961-0.938l0.051-6.8
										C190.38,255.707,189.957,255.278,189.431,255.277L189.431,255.277z"/>
								</g>
								<g>
									<path fill="#808285" d="M182.314,262.06c-0.678-0.009-1.225,0.538-1.229,1.213c-0.007,0.675,0.536,1.229,1.213,1.231
										c0.676,0.01,1.226-0.538,1.232-1.213C183.536,262.615,182.991,262.065,182.314,262.06z"/>
									
										<linearGradient id="SVGID_10_" gradientUnits="userSpaceOnUse" x1="6715.291" y1="1696.541" x2="6707.0352" y2="1696.541" gradientTransform="matrix(0.0077 -1 -1 -0.0077 1827.2013 6983.5752)">
										<stop  offset="0" style="stop-color:#DCDDDE"/>
										<stop  offset="1" style="stop-color:#A7A9AC"/>
									</linearGradient>
									<path fill="url(#SVGID_10_)" d="M182.367,255.222c-0.524-0.002-0.954,0.416-0.958,0.939l-0.048,6.798
										c-0.008,0.523,0.414,0.951,0.94,0.96l0,0c0.528-0.002,0.951-0.422,0.957-0.946l0.057-6.798
										C183.315,255.65,182.896,255.228,182.367,255.222L182.367,255.222z"/>
								</g>
								<g>
									<path fill="#808285" d="M175.259,262.003c-0.679-0.003-1.225,0.536-1.229,1.213c-0.008,0.677,0.534,1.233,1.209,1.236
										c0.682,0.006,1.225-0.542,1.231-1.216C176.477,262.557,175.935,262.008,175.259,262.003z"/>
									
										<linearGradient id="SVGID_11_" gradientUnits="userSpaceOnUse" x1="6715.292" y1="1703.5967" x2="6707.0376" y2="1703.5967" gradientTransform="matrix(0.0077 -1 -1 -0.0077 1827.2013 6983.5752)">
										<stop  offset="0" style="stop-color:#DCDDDE"/>
										<stop  offset="1" style="stop-color:#A7A9AC"/>
									</linearGradient>
									<path fill="url(#SVGID_11_)" d="M175.311,255.166c-0.525-0.002-0.958,0.415-0.959,0.939l-0.053,6.8
										c-0.006,0.523,0.42,0.954,0.944,0.956l0,0c0.53,0.002,0.956-0.416,0.963-0.943l0.054-6.798
										C176.263,255.599,175.837,255.172,175.311,255.166L175.311,255.166z"/>
								</g>
							</g>
						</g>
					</g>
				</g>
			</g>
			<g>
				<path opacity="0.7" fill="#30ACCE" d="M598.833,209.433l-2.163-0.25l0.094-0.758l-6.844-0.853l-0.191,1.54
					c-22.146-1.035-35.813,12.032-39.644,16.279c-0.009,0.008-0.018,0.014-0.026,0.021c-0.6,0.511-1.168,1.041-1.718,1.583
					c-0.565,0.421-1.13,0.845-1.675,1.31c-11.302,9.637-13.902,25.211-5.796,34.717c2.03,2.382,4.544,4.159,7.348,5.335
					c7.643,4.47,18.227,3.787,27.022-1.99c-3.479,3.779-7.944,7.394-13.664,10.315l-1.541-3.436l-10.297,4.622l-1.855-4.276
					l-22.009,9.551l0.73,1.685l-3.774,1.639l0.699,1.609l-3.222,1.398l-2.052,0.89l0,0l-0.304,0.132
					c-0.352,0.152-0.516,0.566-0.362,0.918l0.263,0.606c0.153,0.353,0.566,0.516,0.919,0.362l0.303-0.131l0,0l2.471-1.072l0,0
					l2.803-1.216l2.794,6.438l-5.576,2.42c-0.353,0.153-0.516,0.566-0.362,0.918l0.263,0.606c0.153,0.353,0.566,0.516,0.919,0.363
					l0.303-0.132l0,0l2.471-1.072l0,0l2.803-1.216l0.698,1.609l3.774-1.638l0.771,1.776l22.009-9.551l-2.065-4.759l10.395-4.666
					l-1.14-2.539c10.358-5.266,16.784-12.729,20.732-19.483c2.946-3.881,4.81-8.246,5.51-12.6
					c2.493-7.536,1.515-15.512-3.391-21.265c-6.036-7.079-16.332-8.818-25.864-5.271c6.563-4.608,16.7-9.372,30.088-8.787
					l-0.171,1.375l6.844,0.852l0.078-0.625l2.195,0.253c0.635,0.073,1.215-0.387,1.288-1.021l0.142-1.23
					C599.928,210.086,599.469,209.506,598.833,209.433z M544.785,262.924c-2.154-2.526-3.462-5.535-3.981-8.748
					c0.78,2.147,1.928,4.159,3.459,5.954c4.935,5.787,12.718,7.99,20.603,6.671c-5.427,1.75-11.017,1.692-15.709-0.23
					C547.532,265.606,546.048,264.405,544.785,262.924z M576.066,262.785c0.599-0.51,1.167-1.041,1.717-1.583
					c0.565-0.421,1.13-0.845,1.676-1.31c0.556-0.474,1.083-0.966,1.597-1.467c-1.146,1.43-2.449,2.787-3.913,4.035
					c-2.781,2.372-5.853,4.108-8.998,5.244C570.913,266.511,573.6,264.889,576.066,262.785z M586.894,244.237
					c-0.217,0.989-0.56,2.351-1.088,3.985c-0.19,0.426-0.392,0.85-0.606,1.271c1.435-4.252,1.763-8.646,0.903-12.709
					C586.831,239.146,587.09,241.67,586.894,244.237z M580.33,229.375c6.97,8.174,5.133,21.367-3.885,30.321
					c-10.279,7.564-23.658,7.327-30.65-0.873c-3.597-4.218-4.843-9.772-3.974-15.392c1.53-4.515,4.41-8.869,8.534-12.386
					c7.825-6.672,17.922-8.465,25.604-5.316C577.583,226.692,579.066,227.895,580.33,229.375z M549.049,229.514
					c-0.556,0.474-1.084,0.966-1.598,1.467c0.687-0.855,1.428-1.684,2.228-2.478c0.29-0.214,0.584-0.413,0.879-0.614l0.028,0.021
					c0.005-0.006,0.027-0.035,0.063-0.08c2.026-1.371,4.152-2.452,6.32-3.235C554.202,225.789,551.516,227.41,549.049,229.514z
					 M540.925,238.706c-0.476,1.409-0.834,2.834-1.063,4.259c-1.39,4.201-1.698,8.537-0.85,12.55
					C537.395,250.271,538.111,244.222,540.925,238.706z M583.723,226.482c2.154,2.526,3.462,5.535,3.981,8.748
					c-0.78-2.147-1.929-4.159-3.459-5.954c-2.03-2.382-4.544-4.159-7.349-5.335c-4.51-2.638-10.044-3.479-15.637-2.543
					C569.674,218.684,578.488,220.344,583.723,226.482z"/>
				<g>
					<g>
						<g>
							<g>
								<path fill="#FCFCFC" d="M530.526,293.676l0.267,0.615c0.152,0.35-0.01,0.76-0.359,0.912l-8.054,3.494
									c-0.35,0.152-0.76-0.01-0.912-0.359l-0.267-0.615c-0.152-0.351,0.01-0.761,0.36-0.912l8.053-3.495
									C529.964,293.164,530.375,293.326,530.526,293.676z"/>
								<path fill="#FCFCFC" d="M526.913,285.35l0.268,0.615c0.151,0.35-0.011,0.76-0.36,0.912l-8.054,3.494
									c-0.35,0.152-0.76-0.01-0.912-0.359l-0.267-0.615c-0.151-0.351,0.01-0.761,0.36-0.912l8.053-3.495
									C526.352,284.838,526.762,285,526.913,285.35z"/>
							</g>
							<path fill="#EAEAEA" d="M524.339,295.604l-2.471,1.072c-0.519,0.226-0.759,0.834-0.533,1.354
								c0.225,0.519,0.834,0.759,1.353,0.534l2.471-1.072L524.339,295.604z"/>
							<path fill="#EAEAEA" d="M520.726,287.278l-2.47,1.072c-0.52,0.226-0.76,0.834-0.534,1.354
								c0.225,0.519,0.834,0.759,1.353,0.534l2.471-1.072L520.726,287.278z"/>
						</g>
						
							<rect x="521.975" y="285.755" transform="matrix(-0.3981 -0.9174 0.9174 -0.3981 474.2972 890.4725)" fill="#EAEAEA" width="14.644" height="7.745"/>
						
							<rect x="531.336" y="272.806" transform="matrix(-0.3981 -0.9174 0.9174 -0.3981 494.4536 894.0427)" fill="#F4F4F4" width="18.417" height="23.991"/>
					</g>
					<g>
						<g>
							<path fill="#F4F4F4" d="M540.87,261.009c-8.106-9.506-5.506-25.08,5.796-34.717c11.301-9.637,27.091-9.743,35.196-0.237
								s5.506,25.08-5.796,34.717S548.976,270.515,540.87,261.009z M580.33,227.361c-7.386-8.661-21.901-8.453-32.357,0.463
								c-10.457,8.917-12.956,23.217-5.57,31.878c7.385,8.661,21.9,8.453,32.357-0.463
								C585.217,250.322,587.715,236.022,580.33,227.361z"/>
						</g>
						<g>
							<path fill="#F4F4F4" d="M544.263,258.116c-8.106-9.506-5.506-25.08,5.796-34.717c11.301-9.638,27.091-9.743,35.196-0.237
								s5.506,25.08-5.796,34.717S552.368,267.622,544.263,258.116z M583.723,224.469c-7.386-8.661-21.901-8.454-32.357,0.463
								c-10.457,8.916-12.956,23.217-5.57,31.878c7.385,8.661,21.9,8.453,32.357-0.463
								C588.609,247.43,591.107,233.13,583.723,224.469z"/>
						</g>
						<g>
							<path fill="#F4F4F4" d="M543.253,262.217c-8.105-9.506-5.506-25.08,5.796-34.717s27.091-9.743,35.196-0.237
								s5.506,25.08-5.796,34.717S551.358,271.723,543.253,262.217z M582.713,228.569c-7.386-8.661-21.9-8.454-32.357,0.463
								s-12.956,23.217-5.57,31.878s21.9,8.453,32.357-0.463C587.6,251.53,590.098,237.23,582.713,228.569z"/>
						</g>
					</g>
					<g>
						<path fill="#F4F4F4" d="M548.977,224.685c0.144-0.192,14.742-19.176,41.482-17.559l-0.121,2.01
							c-25.629-1.549-39.614,16.576-39.752,16.76L548.977,224.685z"/>
					</g>
					<g>
						<path fill="#F4F4F4" d="M589.219,240.72c-0.028,0.238-3.171,23.979-27.133,35.957l-0.901-1.801
							c22.967-11.481,26.007-34.172,26.034-34.399L589.219,240.72z"/>
					</g>
					<g>
						
							<rect x="552.071" y="271.622" transform="matrix(0.4096 0.9123 -0.9123 0.4096 581.6879 -343.6593)" fill="#F4F4F4" width="8.566" height="11.916"/>
						
							<rect x="555.622" y="276.564" transform="matrix(0.41 0.9121 -0.9121 0.41 581.4421 -343.6688)" fill="#A6A8AB" width="1.463" height="2.034"/>
					</g>
					<g>
						<g>
							<path fill="#A6A8AB" d="M593.851,209.269l0.144-1.246c0.073-0.631,0.649-1.088,1.28-1.015l3.566,0.412
								c0.631,0.072,1.088,0.648,1.015,1.279l-0.144,1.246c-0.072,0.631-0.648,1.087-1.279,1.015l-3.567-0.412
								C594.234,210.476,593.777,209.899,593.851,209.269z"/>
							<path fill="#F4F4F4" d="M597.106,209.85l0.188-1.627c0.035-0.304,0.313-0.524,0.617-0.489l0.601,0.069
								c0.305,0.035,0.524,0.313,0.489,0.617l-0.188,1.627c-0.035,0.304-0.313,0.524-0.617,0.489l-0.601-0.069
								C597.292,210.432,597.071,210.154,597.106,209.85z"/>
							<g>
								<g>
									<path fill="#EFCE73" d="M597.759,208.311l0.005-0.042c0.003-0.021,0.022-0.037,0.044-0.035l0.798,0.093
										c0.021,0.002,0.037,0.021,0.034,0.043l-0.005,0.043c-0.002,0.021-0.022,0.037-0.044,0.034l-0.798-0.092
										C597.771,208.353,597.756,208.332,597.759,208.311z"/>
									<path fill="#EFCE73" d="M597.725,208.609L597.725,208.609c0.003-0.033,0.034-0.057,0.067-0.053l0.755,0.087
										c0.033,0.004,0.058,0.034,0.054,0.067l0,0c-0.004,0.033-0.034,0.058-0.067,0.054l-0.756-0.087
										C597.744,208.674,597.721,208.643,597.725,208.609z"/>
									<path fill="#EFCE73" d="M597.688,208.93L597.688,208.93c0.004-0.033,0.034-0.057,0.067-0.053l0.755,0.087
										c0.033,0.004,0.058,0.034,0.054,0.067l0,0c-0.004,0.033-0.034,0.058-0.067,0.054l-0.756-0.087
										C597.707,208.994,597.684,208.963,597.688,208.93z"/>
									<path fill="#EFCE73" d="M597.65,209.25L597.65,209.25c0.004-0.033,0.034-0.057,0.067-0.053l0.755,0.087
										c0.033,0.004,0.058,0.034,0.054,0.067l0,0c-0.004,0.033-0.034,0.058-0.067,0.054l-0.755-0.088
										C597.671,209.314,597.646,209.283,597.65,209.25z"/>
									<path fill="#EFCE73" d="M597.613,209.57L597.613,209.57c0.004-0.033,0.034-0.057,0.067-0.053l0.755,0.087
										c0.034,0.004,0.058,0.034,0.054,0.067l0,0c-0.004,0.033-0.034,0.058-0.067,0.054l-0.755-0.088
										C597.634,209.635,597.609,209.604,597.613,209.57z"/>
									<path fill="#EFCE73" d="M597.574,209.912l0.005-0.042c0.002-0.022,0.021-0.037,0.043-0.035l0.798,0.092
										c0.022,0.003,0.037,0.022,0.035,0.044l-0.005,0.043c-0.003,0.021-0.022,0.037-0.044,0.034l-0.798-0.092
										C597.587,209.953,597.571,209.934,597.574,209.912z"/>
								</g>
							</g>
						</g>
						<g>
							
								<rect x="590.557" y="204.996" transform="matrix(-0.1235 0.9923 -0.9923 -0.1235 873.1249 -354.3081)" fill="#F4F4F4" width="4.958" height="6.897"/>
							
								<rect x="592.612" y="207.856" transform="matrix(-0.1235 0.9923 -0.9923 -0.1235 873.1058 -354.3173)" fill="#A6A8AB" width="0.846" height="1.177"/>
						</g>
					</g>
				</g>
			</g>
			<g>
				<path opacity="0.7" fill="#30ACCE" d="M327.64,269.825l-44.822,29.17c-3,1.952-3.852,5.98-1.9,8.979l41.193,63.298
					c1.952,3,5.981,3.853,8.981,1.9l44.822-29.17c2.999-1.952,3.852-5.98,1.899-8.98l-41.193-63.298
					C334.668,268.726,330.639,267.873,327.64,269.825z"/>
				<g>
					<g>
						<g>
							<path fill="#414654" d="M372.578,342.569l-44.821,29.17c-2.528,1.645-5.942,0.923-7.587-1.605l-41.193-63.297
								c-1.645-2.528-0.923-5.942,1.605-7.588l44.822-29.169c2.528-1.646,5.942-0.923,7.587,1.604l41.193,63.298
								C375.829,337.511,375.106,340.925,372.578,342.569z"/>
						</g>
						<g>
							<path fill="#616775" d="M373.128,343.414l-44.822,29.169c-3,1.952-7.028,1.101-8.981-1.899l-41.193-63.298
								c-1.952-2.999-1.1-7.028,1.9-8.98l44.822-29.169c2.999-1.952,7.028-1.101,8.979,1.899l41.193,63.298
								C376.979,337.434,376.127,341.462,373.128,343.414z M281.13,300.094c-2.069,1.347-2.657,4.125-1.311,6.193l41.193,63.298
								c1.347,2.069,4.125,2.657,6.195,1.311l44.822-29.17c2.068-1.347,2.656-4.124,1.31-6.194l-41.193-63.297
								c-1.346-2.069-4.125-2.657-6.193-1.311L281.13,300.094z"/>
						</g>
					</g>
					<g>
						<g>
							<path fill="#D8D8D8" d="M307.918,326.963l-6.225,4.052c-0.861,0.561-2.025,0.314-2.585-0.547l-1.373-2.11
								c-0.561-0.861-0.314-2.024,0.547-2.585l6.225-4.052c0.861-0.561,2.025-0.314,2.586,0.547l1.373,2.11
								C309.026,325.239,308.78,326.402,307.918,326.963z"/>
							<path fill="#D8D8D8" d="M320.578,318.725l-6.225,4.052c-0.861,0.561-2.025,0.314-2.586-0.548l-1.373-2.109
								c-0.561-0.861-0.314-2.025,0.547-2.586l6.225-4.051c0.861-0.561,2.025-0.314,2.585,0.547l1.373,2.109
								C321.686,317,321.439,318.164,320.578,318.725z"/>
							<path fill="#D8D8D8" d="M333.237,310.486l-6.225,4.051c-0.862,0.561-2.025,0.314-2.586-0.547l-1.373-2.109
								c-0.561-0.862-0.314-2.025,0.547-2.586l6.225-4.052c0.862-0.561,2.025-0.314,2.586,0.547l1.373,2.11
								C334.345,308.762,334.099,309.926,333.237,310.486z"/>
							<path fill="#EFB065" d="M345.897,302.247l-6.226,4.052c-0.861,0.561-2.025,0.314-2.585-0.547l-1.373-2.11
								c-0.561-0.861-0.314-2.024,0.547-2.586l6.225-4.051c0.861-0.561,2.025-0.314,2.586,0.547l1.373,2.11
								C347.004,300.523,346.758,301.687,345.897,302.247z"/>
						</g>
						<g>
							<path fill="#F4F4F4" d="M313.72,335.878l-6.225,4.051c-0.862,0.561-2.025,0.314-2.586-0.547l-1.373-2.109
								c-0.561-0.862-0.314-2.025,0.547-2.586l6.225-4.052c0.861-0.561,2.025-0.314,2.586,0.547l1.373,2.11
								C314.827,334.153,314.581,335.317,313.72,335.878z"/>
							<path fill="#F4F4F4" d="M326.379,327.639l-6.225,4.052c-0.861,0.561-2.025,0.314-2.585-0.547l-1.373-2.11
								c-0.561-0.861-0.315-2.024,0.547-2.586l6.225-4.051c0.861-0.561,2.025-0.314,2.586,0.547l1.373,2.11
								C327.487,325.915,327.241,327.078,326.379,327.639z"/>
							<path fill="#F4F4F4" d="M339.039,319.4l-6.225,4.051c-0.861,0.562-2.025,0.315-2.586-0.547l-1.373-2.109
								c-0.561-0.861-0.314-2.025,0.547-2.586l6.226-4.051c0.861-0.561,2.025-0.314,2.585,0.547l1.373,2.109
								C340.146,317.676,339.9,318.84,339.039,319.4z"/>
							<path fill="#F95353" d="M351.698,311.162l-6.225,4.051c-0.862,0.561-2.025,0.314-2.586-0.547l-1.373-2.109
								c-0.561-0.862-0.314-2.025,0.547-2.586l6.225-4.052c0.862-0.561,2.025-0.314,2.586,0.547l1.373,2.11
								C352.806,309.438,352.56,310.602,351.698,311.162z"/>
						</g>
						<g>
							<path fill="#F4F4F4" d="M319.521,344.792l-6.225,4.052c-0.862,0.561-2.025,0.314-2.586-0.547l-1.373-2.11
								c-0.561-0.861-0.314-2.025,0.547-2.586l6.225-4.051c0.862-0.561,2.025-0.314,2.586,0.547l1.373,2.109
								C320.628,343.068,320.382,344.231,319.521,344.792z"/>
							<path fill="#F4F4F4" d="M332.181,336.554l-6.226,4.051c-0.861,0.561-2.025,0.314-2.585-0.547l-1.373-2.109
								c-0.561-0.862-0.314-2.025,0.547-2.586l6.225-4.052c0.861-0.561,2.025-0.314,2.586,0.547l1.373,2.11
								C333.288,334.829,333.042,335.993,332.181,336.554z"/>
							<path fill="#F4F4F4" d="M344.84,328.314l-6.225,4.052c-0.861,0.561-2.025,0.314-2.585-0.547l-1.374-2.11
								c-0.561-0.861-0.314-2.024,0.547-2.586l6.225-4.051c0.861-0.561,2.025-0.314,2.585,0.547l1.374,2.11
								C345.948,326.591,345.702,327.754,344.84,328.314z"/>
							<path fill="#F4F4F4" d="M357.5,320.076l-6.225,4.052c-0.861,0.561-2.025,0.314-2.586-0.548l-1.373-2.109
								c-0.561-0.861-0.314-2.025,0.547-2.586l6.226-4.051c0.861-0.562,2.025-0.314,2.585,0.547l1.373,2.109
								C358.607,318.352,358.361,319.516,357.5,320.076z"/>
						</g>
						<g>
							<path fill="#F4F4F4" d="M325.322,353.707l-6.225,4.051c-0.861,0.561-2.025,0.314-2.585-0.547l-1.374-2.11
								c-0.561-0.861-0.314-2.024,0.547-2.585l6.225-4.052c0.861-0.561,2.025-0.314,2.585,0.547l1.374,2.11
								C326.43,351.982,326.184,353.146,325.322,353.707z"/>
							<path fill="#F4F4F4" d="M337.982,345.468l-6.225,4.052c-0.862,0.561-2.025,0.314-2.586-0.547l-1.373-2.11
								c-0.561-0.861-0.314-2.025,0.547-2.586l6.225-4.051c0.862-0.561,2.025-0.314,2.586,0.547l1.373,2.109
								C339.089,343.744,338.843,344.907,337.982,345.468z"/>
							<path fill="#F4F4F4" d="M350.642,337.229l-6.225,4.051c-0.862,0.561-2.025,0.314-2.586-0.547l-1.373-2.109
								c-0.561-0.862-0.314-2.025,0.547-2.586l6.225-4.052c0.862-0.561,2.025-0.314,2.586,0.547l1.373,2.11
								C351.749,335.505,351.503,336.669,350.642,337.229z"/>
							<path fill="#F4F4F4" d="M363.301,328.99l-6.225,4.052c-0.861,0.561-2.025,0.314-2.585-0.547l-1.374-2.11
								c-0.561-0.861-0.314-2.025,0.547-2.586l6.225-4.051c0.861-0.561,2.025-0.314,2.585,0.547l1.373,2.11
								C364.409,327.267,364.163,328.43,363.301,328.99z"/>
						</g>
						<g>
							<path fill="#F4F4F4" d="M331.124,362.621l-6.225,4.051c-0.861,0.561-2.025,0.314-2.585-0.547l-1.373-2.109
								c-0.561-0.861-0.315-2.025,0.547-2.586l6.225-4.052c0.861-0.561,2.025-0.314,2.585,0.548l1.374,2.109
								C332.231,360.896,331.985,362.061,331.124,362.621z"/>
							<path fill="#F4F4F4" d="M343.783,354.383l-6.225,4.051c-0.861,0.561-2.025,0.314-2.586-0.547l-1.373-2.11
								c-0.561-0.861-0.314-2.024,0.547-2.585l6.225-4.052c0.861-0.561,2.025-0.314,2.585,0.547l1.373,2.11
								C344.891,352.658,344.645,353.821,343.783,354.383z"/>
							<path fill="#F4F4F4" d="M356.443,346.144l-6.225,4.052c-0.862,0.561-2.025,0.314-2.586-0.547l-1.373-2.11
								c-0.561-0.861-0.314-2.025,0.547-2.586l6.225-4.051c0.862-0.561,2.025-0.314,2.586,0.547l1.373,2.109
								C357.55,344.42,357.304,345.583,356.443,346.144z"/>
							<path fill="#F4F4F4" d="M369.103,337.905l-6.226,4.051c-0.861,0.561-2.025,0.314-2.585-0.547l-1.373-2.109
								c-0.561-0.862-0.314-2.025,0.547-2.586l6.225-4.052c0.861-0.561,2.025-0.314,2.586,0.547l1.373,2.11
								C370.21,336.181,369.964,337.345,369.103,337.905z"/>
						</g>
					</g>
					<g>
						<path fill="#2C2E3A" d="M338.589,292.859l-42.52,27.672c-0.979,0.638-2.303,0.357-2.94-0.622l-7.867-12.089
							c-0.638-0.979-0.358-2.303,0.622-2.94l42.52-27.672c0.98-0.638,2.303-0.357,2.941,0.622l7.867,12.089
							C339.849,290.898,339.568,292.222,338.589,292.859z"/>
						<path fill="#616775" d="M338.851,293.29l-42.495,27.655c-1.222,0.795-2.862,0.447-3.657-0.774l-7.852-12.064
							c-0.794-1.221-0.448-2.862,0.774-3.657l42.495-27.655c1.221-0.794,2.862-0.447,3.657,0.774l7.851,12.064
							C340.419,290.854,340.072,292.495,338.851,293.29z M286.17,305.294c-0.757,0.492-0.971,1.507-0.479,2.264l7.851,12.064
							c0.493,0.757,1.508,0.972,2.264,0.479l42.495-27.655c0.757-0.492,0.971-1.507,0.479-2.264l-7.852-12.064
							c-0.492-0.757-1.507-0.971-2.264-0.479L286.17,305.294z"/>
					</g>
				</g>
			</g>
			<g>
				<g>
					<g>
						<polygon fill="#FEC873" points="379.332,262.313 378.86,264.069 296.903,242.193 297.368,240.442 						"/>
						<polygon fill="#EFB065" points="379.797,260.564 379.332,262.313 297.368,240.442 297.84,238.686 						"/>
						<polygon fill="#E39B47" points="380.266,258.811 379.797,260.564 297.84,238.686 298.304,236.93 						"/>
					</g>
					<polygon fill="#EFD5A9" points="297.368,240.442 285.791,236.44 296.903,242.193 					"/>
					<polygon fill="#D6B59D" points="285.791,236.44 297.84,238.686 297.368,240.442 					"/>
					<polygon fill="#C3A386" points="285.791,236.44 298.304,236.93 297.84,238.686 					"/>
					<path fill="#5D5F63" d="M288.912,237.022c-0.002,0.062-0.023,0.117-0.04,0.174c-0.024,0.101-0.053,0.188-0.097,0.278
						c-0.062,0.137-0.13,0.277-0.208,0.395l-2.772-1.43l3.148,0.123C288.955,236.718,288.939,236.87,288.912,237.022z"/>
				</g>
			</g>
			<g>
				<linearGradient id="SVGID_12_" gradientUnits="userSpaceOnUse" x1="210.811" y1="400" x2="210.811" y2="156.2666">
					<stop  offset="0.3122" style="stop-color:#FFFFFF"/>
					<stop  offset="0.4724" style="stop-color:#FAFBFB"/>
					<stop  offset="0.6503" style="stop-color:#EDEDEE"/>
					<stop  offset="0.8359" style="stop-color:#D7D8D9"/>
					<stop  offset="1" style="stop-color:#BDBEC0"/>
				</linearGradient>
				<polygon fill="url(#SVGID_12_)" points="0,394.542 178.229,216.313 421.622,156.267 177.888,400 				"/>
				<g>
					<path fill="#BDBEC0" d="M246.553,196.226c3.245,14.306,31.417,32.254,59.601,25.86c28.303-6.421,45.832-34.737,42.586-49.045
						c-3.244-14.301-28.724-20.711-57.027-14.291C263.529,165.144,243.309,181.926,246.553,196.226z"/>
					<path fill="#4B72AA" d="M246.753,195.431c3.247,14.309,31.214,31.38,59.403,24.985c28.298-6.42,46.031-33.86,42.786-48.17
						c-3.245-14.301-28.725-20.717-57.024-14.297C263.729,164.345,243.508,181.129,246.753,195.431z"/>
					<path fill="#2C2E3A" d="M247.005,194.438c3.247,14.305,31.417,32.255,59.602,25.859c28.302-6.419,45.83-34.736,42.585-49.043
						c-3.245-14.303-28.727-20.721-57.028-14.299C263.98,163.349,243.76,180.132,247.005,194.438z"/>
					<path fill="#2C2E3A" d="M111.024,153.029c0.423,1.867,2.763,2.919,5.231,2.36l328.768-74.586
						c2.471-0.561,4.131-2.52,3.708-4.386l-1.591-7.013c-0.422-1.857-2.769-2.916-5.237-2.354l-328.767,74.586
						c-2.467,0.56-4.124,2.524-3.702,4.382L111.024,153.029z"/>
					<path fill="#BDBEC0" d="M423.467,159.459c-0.442,1.416-2.259,2.886-4.062,3.295l-240.015,54.45
						c-1.792,0.407-4.126-0.121-5.222-1.188l-6.627-6.488l259.047-58.771L423.467,159.459z"/>
					<path fill="#414654" d="M113.558,151.867l332.244-75.375c2.497-0.567,3.85,1.099,3.035,3.676l-21.419,69.146l-0.039,0.104
						l-0.044,0.011l-3.162,8.716c-0.447,1.42-2.277,2.89-4.095,3.303l-241.85,54.866c-1.809,0.411-4.161-0.111-5.261-1.181
						l-6.669-6.484l0.054-0.013l-0.081-0.079l-53.594-52.126C110.684,154.49,111.064,152.432,113.558,151.867z"/>
					<path fill="#FFFFFF" d="M444.247,81.594l-24.109,73.711l-244.521,55.33l-56.277-55.088
						C119.046,155.259,444.247,81.594,444.247,81.594z"/>
					<polygon fill="#F4F4F4" points="445.13,81.279 421.622,156.267 174.959,210.928 119.113,155.338 					"/>
					<polygon fill="#F9F9F9" points="445.13,81.279 295.882,183.421 421.622,156.267 					"/>
				</g>
			</g>
		</g>
	</g>
	<g opacity="0.2">
		<g enable-background="new    ">
			<g>
				<polygon fill="#353535" points="330.441,163.943 331.055,171.896 411.375,153.234 413.572,144.63 				"/>
			</g>
			<g>
				<polygon fill="#353535" points="239.5,178.995 240.354,180.716 414.701,140.21 415.222,138.17 				"/>
			</g>
			<g>
				<polygon fill="#353535" points="236.491,172.924 237.391,174.74 416.51,133.126 417.06,130.973 				"/>
			</g>
			<g>
				<polygon fill="#353535" points="233.311,166.51 234.263,168.43 418.42,125.645 419.001,123.367 				"/>
			</g>
			<g>
				<polygon fill="#353535" points="161.674,180.078 183.878,206.09 238.173,193.475 223.288,165.763 				"/>
			</g>
			<g>
				<polygon fill="#353535" points="229.944,159.719 230.952,161.753 420.441,117.729 421.057,115.317 				"/>
			</g>
			<g>
				<polygon fill="#353535" points="218.552,136.74 219.762,139.181 427.275,90.969 428.014,88.075 				"/>
			</g>
			<g>
				<polygon fill="#353535" points="140.216,154.939 159.282,177.275 221.684,162.777 208.903,138.981 				"/>
			</g>
		</g>
		<g>
			<polygon fill="#353535" points="226.375,152.521 227.445,154.678 422.583,109.341 423.237,106.783 			"/>
		</g>
		<g>
			<polygon fill="#353535" points="222.585,144.875 223.722,147.167 424.857,100.438 425.551,97.719 			"/>
		</g>
	</g>
</g>
</svg>
